<svg xmlns="http://www.w3.org/2000/svg" xmlns:xlink="http://www.w3.org/1999/xlink" width="500" zoomAndPan="magnify" viewBox="0 0 375 209.999996" height="280" preserveAspectRatio="xMidYMid meet" version="1.0"><defs><clipPath id="180f7c02a4"><path d="M 1 0.703125 L 111 0.703125 L 111 141 L 1 141 Z M 1 0.703125 " clip-rule="nonzero"/></clipPath><clipPath id="9df86a67fe"><path d="M 250 0.703125 L 360 0.703125 L 360 141 L 250 141 Z M 250 0.703125 " clip-rule="nonzero"/></clipPath><clipPath id="14c87cec12"><path d="M 44.328125 161 L 88.335938 161 L 88.335938 209.203125 L 44.328125 209.203125 Z M 44.328125 161 " clip-rule="nonzero"/></clipPath><clipPath id="27f31195a0"><path d="M 182 161 L 226 161 L 226 209.203125 L 182 209.203125 Z M 182 161 " clip-rule="nonzero"/></clipPath><clipPath id="97b3b08899"><path d="M 232.941406 162 L 271 162 L 271 209.203125 L 232.941406 209.203125 Z M 232.941406 162 " clip-rule="nonzero"/></clipPath><clipPath id="6808588e9d"><path d="M 11 20.785156 L 90.488281 20.785156 L 90.488281 33.082031 L 11 33.082031 Z M 120.703125 59.617188 L 121 59.617188 L 121 72.566406 L 120.703125 72.566406 Z M 56.820312 121.910156 L 121 121.910156 L 121 131.292969 L 56.820312 131.292969 Z M 56.820312 121.910156 " clip-rule="nonzero"/></clipPath><clipPath id="978afd6735"><path d="M 192.296875 33.082031 L 244 33.082031 L 244 44.085938 L 192.296875 44.085938 Z M 135.140625 59.617188 L 244 59.617188 L 244 72.566406 L 135.140625 72.566406 Z M 135.140625 59.617188 " clip-rule="nonzero"/></clipPath><clipPath id="3c71ed6afd"><path d="M 274.375 20.785156 L 332.648438 20.785156 L 332.648438 33.082031 L 274.375 33.082031 Z M 314.6875 72.566406 L 365.667969 72.566406 L 365.667969 79.679688 L 314.6875 79.679688 Z M 261.550781 125.628906 L 369.863281 125.628906 L 369.863281 136.957031 L 261.550781 136.957031 Z M 261.550781 125.628906 " clip-rule="nonzero"/></clipPath><clipPath id="947dfd5044"><path d="M 33.1875 173.523438 L 47 173.523438 L 47 181.621094 L 33.1875 181.621094 Z M 33.1875 173.523438 " clip-rule="nonzero"/></clipPath><clipPath id="563b1b7fd4"><path d="M 54.109375 173.523438 L 76.242188 173.523438 L 76.242188 181.621094 L 54.109375 181.621094 Z M 54.109375 173.523438 " clip-rule="nonzero"/></clipPath><clipPath id="de888c8e05"><path d="M 107.972656 196.820312 L 137.238281 196.820312 L 137.238281 203.292969 L 107.972656 203.292969 Z M 107.972656 196.820312 " clip-rule="nonzero"/></clipPath><clipPath id="563dc041d5"><path d="M 159.59375 196.820312 L 181.457031 196.820312 L 181.457031 203.292969 L 159.59375 203.292969 Z M 159.59375 196.820312 " clip-rule="nonzero"/></clipPath><clipPath id="893a379702"><path d="M 215.453125 181.621094 L 236 181.621094 L 236 188.40625 L 215.453125 188.40625 Z M 215.453125 181.621094 " clip-rule="nonzero"/></clipPath><clipPath id="e7767e7383"><path d="M 242.023438 181.621094 L 280.445312 181.621094 L 280.445312 188.40625 L 242.023438 188.40625 Z M 242.023438 181.621094 " clip-rule="nonzero"/></clipPath><clipPath id="56bdf5ddf7"><path d="M 305.128906 204.585938 L 327 204.585938 L 327 208.785156 L 305.128906 208.785156 Z M 305.128906 204.585938 " clip-rule="nonzero"/></clipPath><clipPath id="8909510c69"><path d="M 355.703125 178.050781 L 375 178.050781 L 375 185.191406 L 355.703125 185.191406 Z M 336.332031 204.585938 L 373.113281 204.585938 L 373.113281 208.785156 L 336.332031 208.785156 Z M 336.332031 204.585938 " clip-rule="nonzero"/></clipPath></defs><g clip-path="url(#180f7c02a4)"><path fill="#ffffff" d="M 62.179688 140.394531 L 94.863281 140.394531 L 94.863281 131.296875 L 62.113281 131.296875 Z M 94.863281 87.183594 L 94.863281 54.925781 L 65.996094 54.925781 L 62.394531 87.183594 L 36.074219 87.183594 L 60.566406 33.082031 L 27.421875 33.082031 L 1.476562 89.792969 L 1.476562 110.96875 L 61.964844 110.96875 L 62.042969 121.910156 L 94.863281 121.910156 L 94.863281 110.96875 L 110.992188 110.96875 L 110.992188 87.183594 Z M 42.230469 0.707031 L 33.042969 20.785156 L 66.140625 20.785156 L 70.667969 10.78125 L 42.230469 0.707031 " fill-opacity="1" fill-rule="nonzero"/></g><path fill="#ffffff" d="M 231.113281 44.078125 L 197.742188 44.078125 C 198.550781 48.292969 199.101562 53.476562 199.414062 59.613281 L 233.550781 59.613281 C 233.074219 54.050781 232.261719 48.878906 231.113281 44.078125 Z M 220.1875 19.65625 C 210.914062 7.433594 197.507812 1.316406 179.96875 1.316406 C 162.417969 1.316406 149.019531 7.433594 139.75 19.65625 C 132.292969 29.5 127.835938 42.808594 126.378906 59.613281 L 160.523438 59.613281 C 160.847656 53.441406 161.421875 48.246094 162.246094 44.042969 C 163.585938 37.191406 165.675781 32.285156 168.507812 29.335938 C 171.335938 26.375 175.152344 24.898438 179.96875 24.898438 C 184.777344 24.898438 188.59375 26.308594 191.429688 29.128906 C 192.480469 30.167969 193.414062 31.488281 194.246094 33.082031 L 227.679688 33.082031 C 225.65625 28.050781 223.160156 23.578125 220.1875 19.65625 Z M 199.707031 72.5625 C 199.707031 84.746094 199.035156 94.289062 197.6875 101.191406 C 196.34375 108.113281 194.257812 113.015625 191.429688 115.898438 C 188.59375 118.792969 184.777344 120.238281 179.96875 120.238281 C 175.152344 120.238281 171.335938 118.753906 168.507812 115.804688 C 165.675781 112.851562 163.585938 107.910156 162.246094 100.988281 C 160.894531 94.085938 160.226562 84.613281 160.226562 72.5625 L 125.84375 72.5625 C 125.851562 95.359375 130.488281 112.929688 139.75 125.277344 C 149.019531 137.636719 162.417969 143.820312 179.96875 143.820312 C 197.507812 143.820312 210.914062 137.636719 220.1875 125.277344 C 229.445312 112.929688 234.074219 95.359375 234.089844 72.5625 L 199.707031 72.5625 " fill-opacity="1" fill-rule="nonzero"/><g clip-path="url(#9df86a67fe)"><path fill="#ffffff" d="M 290.960938 0.707031 L 281.78125 20.785156 L 314.882812 20.785156 L 319.40625 10.78125 Z M 310.894531 136.957031 L 310.917969 140.394531 L 343.601562 140.394531 L 343.601562 136.957031 Z M 343.601562 87.183594 L 343.601562 79.679688 L 311.96875 79.679688 L 311.121094 87.183594 L 284.8125 87.183594 L 309.308594 33.082031 L 276.15625 33.082031 L 250.21875 89.792969 L 250.21875 110.96875 L 310.703125 110.96875 L 310.8125 125.625 L 343.601562 125.625 L 343.601562 110.96875 L 359.734375 110.96875 L 359.734375 87.183594 Z M 314.738281 54.925781 L 312.769531 72.5625 L 343.601562 72.5625 L 343.601562 54.925781 L 314.738281 54.925781 " fill-opacity="1" fill-rule="nonzero"/></g><path fill="#ffffff" d="M 27.023438 181.621094 C 27.070312 186.71875 27.566406 192.125 28.546875 197.855469 L 14.269531 162.273438 L 0.0625 162.273438 L 0.0625 208.105469 L 10.226562 208.105469 L 10.226562 191.308594 C 10.226562 187.652344 10.101562 184.488281 9.839844 181.816406 C 9.589844 179.144531 9.230469 176.070312 8.761719 172.59375 L 22.691406 208.105469 L 37.25 208.105469 L 37.25 181.621094 Z M 27.011719 162.273438 L 27.011719 173.523438 L 37.25 173.523438 L 37.25 162.273438 L 27.011719 162.273438 " fill-opacity="1" fill-rule="nonzero"/><g clip-path="url(#14c87cec12)"><path fill="#ffffff" d="M 82.546875 167.429688 C 78.722656 163.246094 73.367188 161.148438 66.492188 161.148438 C 61.996094 161.148438 58.109375 162.105469 54.867188 164.023438 C 51.613281 165.945312 49.117188 168.710938 47.378906 172.320312 C 47.183594 172.71875 47.011719 173.117188 46.84375 173.523438 L 58.78125 173.523438 C 58.898438 173.304688 59.023438 173.089844 59.152344 172.882812 C 60.753906 170.351562 63.199219 169.085938 66.492188 169.085938 C 69.796875 169.085938 72.25 170.339844 73.875 172.855469 C 75.507812 175.371094 76.3125 179.46875 76.3125 185.15625 C 76.3125 190.84375 75.515625 194.960938 73.914062 197.496094 C 72.3125 200.027344 69.84375 201.289062 66.492188 201.289062 C 63.25 201.289062 60.808594 200.019531 59.179688 197.453125 C 57.558594 194.902344 56.75 190.796875 56.75 185.15625 C 56.75 183.902344 56.789062 182.71875 56.878906 181.621094 L 44.929688 181.621094 C 44.824219 182.757812 44.765625 183.933594 44.765625 185.15625 C 44.765625 190.234375 45.640625 194.5625 47.378906 198.15625 C 49.117188 201.746094 51.613281 204.492188 54.867188 206.386719 C 58.109375 208.28125 61.996094 209.230469 66.492188 209.230469 C 71 209.230469 74.882812 208.269531 78.15625 206.347656 C 81.429688 204.433594 83.9375 201.667969 85.683594 198.058594 C 87.421875 194.4375 88.296875 190.136719 88.296875 185.15625 C 88.296875 177.527344 86.371094 171.625 82.546875 167.429688 " fill-opacity="1" fill-rule="nonzero"/></g><path fill="#ffffff" d="M 103.058594 203.289062 L 103.058594 208.105469 L 114.480469 208.105469 L 114.480469 203.289062 Z M 90.589844 162.273438 L 90.589844 170.605469 L 103.058594 170.605469 L 103.058594 196.824219 L 114.480469 196.824219 L 114.480469 170.605469 L 126.386719 170.605469 L 127.503906 162.273438 L 90.589844 162.273438 " fill-opacity="1" fill-rule="nonzero"/><path fill="#ffffff" d="M 150.132812 203.289062 L 150.132812 208.105469 L 161.558594 208.105469 L 161.558594 203.289062 Z M 177.707031 170.011719 L 178.894531 162.273438 L 150.132812 162.273438 L 150.132812 196.824219 L 161.558594 196.824219 L 161.558594 189.921875 L 175.617188 189.921875 L 175.617188 182.183594 L 161.558594 182.183594 L 161.558594 170.011719 L 177.707031 170.011719 " fill-opacity="1" fill-rule="nonzero"/><g clip-path="url(#27f31195a0)"><path fill="#ffffff" d="M 214.019531 188.40625 C 213.769531 192.445312 213.011719 195.476562 211.726562 197.496094 C 210.125 200.027344 207.648438 201.289062 204.308594 201.289062 C 201.0625 201.289062 198.628906 200.019531 196.996094 197.453125 C 195.375 194.902344 194.554688 190.796875 194.554688 185.15625 C 194.554688 179.515625 195.359375 175.421875 196.96875 172.882812 C 198.570312 170.351562 201.015625 169.085938 204.308594 169.085938 C 207.609375 169.085938 210.070312 170.339844 211.691406 172.855469 C 212.960938 174.816406 213.730469 177.726562 214 181.621094 L 225.957031 181.621094 C 225.453125 175.679688 223.578125 170.953125 220.363281 167.429688 C 216.535156 163.246094 211.183594 161.148438 204.308594 161.148438 C 199.8125 161.148438 195.925781 162.105469 192.679688 164.023438 C 189.429688 165.945312 186.933594 168.710938 185.195312 172.320312 C 183.457031 175.941406 182.582031 180.210938 182.582031 185.15625 C 182.582031 190.234375 183.457031 194.5625 185.195312 198.15625 C 186.933594 201.746094 189.429688 204.492188 192.679688 206.386719 C 195.925781 208.28125 199.8125 209.230469 204.308594 209.230469 C 208.816406 209.230469 212.699219 208.269531 215.972656 206.347656 C 219.246094 204.433594 221.757812 201.667969 223.5 198.058594 C 224.847656 195.253906 225.675781 192.027344 225.976562 188.40625 L 214.019531 188.40625 " fill-opacity="1" fill-rule="nonzero"/></g><g clip-path="url(#97b3b08899)"><path fill="#ffffff" d="M 259.261719 188.40625 L 259.261719 192.425781 C 259.261719 195.390625 258.667969 197.582031 257.480469 199.007812 C 256.296875 200.445312 254.402344 201.164062 251.800781 201.164062 C 249.246094 201.164062 247.382812 200.445312 246.199219 199.007812 C 245.011719 197.582031 244.417969 195.390625 244.417969 192.425781 L 244.417969 188.40625 L 232.996094 188.40625 L 232.996094 192.894531 C 232.996094 197.871094 234.601562 201.84375 237.808594 204.792969 C 241.011719 207.753906 245.675781 209.230469 251.800781 209.230469 C 255.886719 209.230469 259.347656 208.523438 262.183594 207.113281 C 265.011719 205.707031 267.136719 203.765625 268.554688 201.289062 C 269.964844 198.824219 270.671875 196.027344 270.671875 192.894531 L 270.671875 188.40625 Z M 259.261719 162.273438 L 259.261719 181.621094 L 270.671875 181.621094 L 270.671875 162.273438 Z M 232.996094 162.273438 L 232.996094 181.621094 L 244.417969 181.621094 L 244.417969 162.273438 L 232.996094 162.273438 " fill-opacity="1" fill-rule="nonzero"/></g><path fill="#ffffff" d="M 306.753906 162.273438 L 306.753906 180.785156 C 306.753906 186.125 307.257812 191.8125 308.277344 197.855469 L 294 162.273438 L 279.800781 162.273438 L 279.800781 208.105469 L 289.972656 208.105469 L 289.972656 191.308594 C 289.972656 187.652344 289.835938 184.488281 289.582031 181.816406 C 289.328125 179.144531 288.96875 176.070312 288.503906 172.59375 L 301.050781 204.589844 L 316.988281 204.589844 L 316.988281 162.273438 L 306.753906 162.273438 " fill-opacity="1" fill-rule="nonzero"/><path fill="#ffffff" d="M 353.410156 185.195312 C 353.382812 190.796875 352.402344 194.695312 350.488281 196.890625 C 348.535156 199.125 345.679688 200.230469 341.921875 200.230469 L 338.152344 200.230469 L 338.152344 170.148438 L 341.773438 170.148438 C 344.242188 170.148438 346.300781 170.554688 347.972656 171.371094 C 349.640625 172.1875 350.972656 173.671875 351.945312 175.828125 C 352.246094 176.488281 352.5 177.222656 352.699219 178.050781 L 364.648438 178.050781 C 363.703125 173.0625 361.617188 169.417969 358.382812 167.136719 C 353.808594 163.898438 347.738281 162.273438 340.171875 162.273438 L 326.742188 162.273438 L 326.742188 204.589844 L 356.050781 204.589844 C 356.9375 204.085938 357.761719 203.523438 358.558594 202.910156 C 362.976562 199.484375 365.210938 193.574219 365.246094 185.195312 L 353.410156 185.195312 " fill-opacity="1" fill-rule="nonzero"/><g clip-path="url(#6808588e9d)"><path fill="#ffffff" d="M 104.574219 110.960938 L 104.574219 140.390625 L 71.886719 140.390625 L 71.675781 110.960938 L 11.1875 110.960938 L 11.1875 89.800781 L 51.9375 0.707031 L 80.378906 10.785156 L 45.785156 87.179688 L 72.101562 87.179688 L 75.707031 54.929688 L 104.574219 54.929688 L 104.574219 87.179688 L 120.703125 87.179688 L 120.703125 110.960938 L 104.574219 110.960938 " fill-opacity="1" fill-rule="nonzero"/></g><g clip-path="url(#978afd6735)"><path fill="#ffffff" d="M 178.21875 29.332031 C 175.386719 32.289062 173.300781 37.191406 171.957031 44.042969 C 170.609375 50.898438 169.941406 60.371094 169.941406 72.464844 C 169.941406 84.558594 170.609375 94.066406 171.957031 100.984375 C 173.300781 107.90625 175.386719 112.847656 178.21875 115.800781 C 181.046875 118.757812 184.867188 120.234375 189.675781 120.234375 C 194.484375 120.234375 198.308594 118.792969 201.140625 115.902344 C 203.96875 113.011719 206.054688 108.109375 207.402344 101.1875 C 208.742188 94.265625 209.417969 84.691406 209.417969 72.464844 C 209.417969 60.238281 208.742188 50.664062 207.402344 43.742188 C 206.054688 36.824219 203.96875 31.953125 201.140625 29.128906 C 198.308594 26.308594 194.484375 24.898438 189.675781 24.898438 C 184.867188 24.898438 181.046875 26.378906 178.21875 29.332031 Z M 229.898438 19.65625 C 239.164062 31.882812 243.796875 49.484375 243.796875 72.464844 C 243.796875 95.3125 239.164062 112.910156 229.898438 125.273438 C 220.628906 137.636719 207.21875 143.816406 189.675781 143.816406 C 172.132812 143.816406 158.722656 137.636719 149.460938 125.273438 C 140.191406 112.910156 135.558594 95.3125 135.558594 72.464844 C 135.558594 49.484375 140.191406 31.882812 149.460938 19.65625 C 158.722656 7.429688 172.132812 1.3125 189.675781 1.3125 C 207.21875 1.3125 220.628906 7.429688 229.898438 19.65625 " fill-opacity="1" fill-rule="nonzero"/></g><g clip-path="url(#3c71ed6afd)"><path fill="#ffffff" d="M 353.3125 110.960938 L 353.3125 140.390625 L 320.625 140.390625 L 320.417969 110.960938 L 259.925781 110.960938 L 259.925781 89.800781 L 300.679688 0.707031 L 329.117188 10.785156 L 294.523438 87.179688 L 320.839844 87.179688 L 324.445312 54.929688 L 353.3125 54.929688 L 353.3125 87.179688 L 369.441406 87.179688 L 369.441406 110.960938 L 353.3125 110.960938 " fill-opacity="1" fill-rule="nonzero"/></g><g clip-path="url(#947dfd5044)"><path fill="#ffffff" d="M 32.40625 208.105469 L 18.476562 172.589844 C 18.941406 176.074219 19.300781 179.148438 19.558594 181.816406 C 19.8125 184.484375 19.941406 187.644531 19.941406 191.304688 L 19.941406 208.105469 L 9.773438 208.105469 L 9.773438 162.273438 L 23.980469 162.273438 L 38.257812 197.855469 C 37.234375 191.8125 36.722656 186.125 36.722656 180.792969 L 36.722656 162.273438 L 46.960938 162.273438 L 46.960938 208.105469 L 32.40625 208.105469 " fill-opacity="1" fill-rule="nonzero"/></g><g clip-path="url(#563b1b7fd4)"><path fill="#ffffff" d="M 68.863281 172.886719 C 67.261719 175.421875 66.460938 179.511719 66.460938 185.15625 C 66.460938 190.796875 67.269531 194.902344 68.894531 197.457031 C 70.519531 200.015625 72.957031 201.292969 76.207031 201.292969 C 79.550781 201.292969 82.023438 200.027344 83.625 197.488281 C 85.226562 194.957031 86.027344 190.84375 86.027344 185.15625 C 86.027344 179.46875 85.214844 175.367188 83.589844 172.855469 C 81.964844 170.339844 79.503906 169.085938 76.207031 169.085938 C 72.910156 169.085938 70.460938 170.351562 68.863281 172.886719 Z M 92.257812 167.429688 C 96.089844 171.621094 98.003906 177.527344 98.003906 185.15625 C 98.003906 190.136719 97.136719 194.4375 95.394531 198.050781 C 93.652344 201.667969 91.144531 204.433594 87.875 206.351562 C 84.597656 208.269531 80.710938 209.230469 76.207031 209.230469 C 71.707031 209.230469 67.828125 208.28125 64.578125 206.386719 C 61.328125 204.492188 58.832031 201.746094 57.09375 198.152344 C 55.351562 194.558594 54.480469 190.226562 54.480469 185.15625 C 54.480469 180.21875 55.351562 175.941406 57.09375 172.324219 C 58.832031 168.710938 61.328125 165.941406 64.578125 164.023438 C 67.828125 162.105469 71.707031 161.148438 76.207031 161.148438 C 83.078125 161.148438 88.429688 163.242188 92.257812 167.429688 " fill-opacity="1" fill-rule="nonzero"/></g><g clip-path="url(#de888c8e05)"><path fill="#ffffff" d="M 124.1875 170.605469 L 124.1875 208.105469 L 112.769531 208.105469 L 112.769531 170.605469 L 100.304688 170.605469 L 100.304688 162.273438 L 137.214844 162.273438 L 136.097656 170.605469 L 124.1875 170.605469 " fill-opacity="1" fill-rule="nonzero"/></g><g clip-path="url(#563dc041d5)"><path fill="#ffffff" d="M 171.265625 170.011719 L 171.265625 182.179688 L 185.332031 182.179688 L 185.332031 189.917969 L 171.265625 189.917969 L 171.265625 208.105469 L 159.84375 208.105469 L 159.84375 162.273438 L 188.605469 162.273438 L 187.421875 170.011719 L 171.265625 170.011719 " fill-opacity="1" fill-rule="nonzero"/></g><g clip-path="url(#893a379702)"><path fill="#ffffff" d="M 206.675781 172.886719 C 205.074219 175.421875 204.273438 179.511719 204.273438 185.15625 C 204.273438 190.796875 205.082031 194.902344 206.710938 197.457031 C 208.335938 200.015625 210.773438 201.292969 214.023438 201.292969 C 217.367188 201.292969 219.839844 200.027344 221.441406 197.488281 C 223.042969 194.957031 223.84375 190.84375 223.84375 185.15625 C 223.84375 179.46875 223.03125 175.367188 221.40625 172.855469 C 219.78125 170.339844 217.320312 169.085938 214.023438 169.085938 C 210.726562 169.085938 208.277344 170.351562 206.675781 172.886719 Z M 230.074219 167.429688 C 233.90625 171.621094 235.820312 177.527344 235.820312 185.15625 C 235.820312 190.136719 234.949219 194.4375 233.210938 198.050781 C 231.472656 201.667969 228.960938 204.433594 225.6875 206.351562 C 222.414062 208.269531 218.527344 209.230469 214.023438 209.230469 C 209.519531 209.230469 205.644531 208.28125 202.394531 206.386719 C 199.144531 204.492188 196.648438 201.746094 194.90625 198.152344 C 193.167969 194.558594 192.296875 190.226562 192.296875 185.15625 C 192.296875 180.21875 193.167969 175.941406 194.90625 172.324219 C 196.648438 168.710938 199.144531 165.941406 202.394531 164.023438 C 205.644531 162.105469 209.519531 161.148438 214.023438 161.148438 C 220.894531 161.148438 226.246094 163.242188 230.074219 167.429688 " fill-opacity="1" fill-rule="nonzero"/></g><g clip-path="url(#e7767e7383)"><path fill="#ffffff" d="M 278.265625 201.292969 C 276.847656 203.761719 274.726562 205.703125 271.894531 207.113281 C 269.058594 208.523438 265.601562 209.230469 261.519531 209.230469 C 255.390625 209.230469 250.722656 207.753906 247.519531 204.800781 C 244.316406 201.84375 242.714844 197.875 242.714844 192.894531 L 242.714844 162.273438 L 254.136719 162.273438 L 254.136719 192.429688 C 254.136719 195.382812 254.726562 197.578125 255.910156 199.011719 C 257.09375 200.445312 258.960938 201.160156 261.519531 201.160156 C 264.117188 201.160156 266.007812 200.445312 267.195312 199.011719 C 268.375 197.578125 268.96875 195.382812 268.96875 192.429688 L 268.96875 162.273438 L 280.390625 162.273438 L 280.390625 192.894531 C 280.390625 196.023438 279.679688 198.824219 278.265625 201.292969 " fill-opacity="1" fill-rule="nonzero"/></g><g clip-path="url(#56bdf5ddf7)"><path fill="#ffffff" d="M 312.144531 208.105469 L 298.214844 172.589844 C 298.679688 176.074219 299.039062 179.148438 299.296875 181.816406 C 299.550781 184.484375 299.675781 187.644531 299.675781 191.304688 L 299.675781 208.105469 L 289.511719 208.105469 L 289.511719 162.273438 L 303.714844 162.273438 L 317.992188 197.855469 C 316.972656 191.8125 316.460938 186.125 316.460938 180.792969 L 316.460938 162.273438 L 326.699219 162.273438 L 326.699219 208.105469 L 312.144531 208.105469 " fill-opacity="1" fill-rule="nonzero"/></g><g clip-path="url(#8909510c69)"><path fill="#ffffff" d="M 347.867188 200.234375 L 351.628906 200.234375 C 355.390625 200.234375 358.242188 199.121094 360.195312 196.894531 C 362.144531 194.667969 363.121094 190.6875 363.121094 184.957031 C 363.121094 181.035156 362.632812 177.992188 361.65625 175.828125 C 360.683594 173.671875 359.359375 172.183594 357.6875 171.367188 C 356.015625 170.550781 353.949219 170.144531 351.488281 170.144531 L 347.867188 170.144531 Z M 368.097656 167.132812 C 372.671875 170.371094 374.960938 176.316406 374.960938 184.957031 C 374.960938 193.46875 372.730469 199.453125 368.273438 202.914062 C 363.816406 206.371094 358.035156 208.105469 350.933594 208.105469 L 336.449219 208.105469 L 336.449219 162.273438 L 349.886719 162.273438 C 357.453125 162.273438 363.527344 163.894531 368.097656 167.132812 " fill-opacity="1" fill-rule="nonzero"/></g></svg>