<svg width="1556" height="782" viewBox="0 0 1556 782" fill="none" xmlns="http://www.w3.org/2000/svg">
<g clip-path="url(#clip0_2521_12304)">
<path d="M1.95824 659.915C914.4 809.195 1429.14 457.335 1891.1 633.874C1554.42 549.194 770.804 851.72 1.95824 659.915Z" fill="#7943BE"/>
<path d="M1.9362 659.911C914.401 809.202 1429.14 457.326 1891.11 633.88M1.93958 659.91C770.805 851.729 1554.44 549.182 1891.12 633.879" stroke="#A259FF" stroke-width="5"/>
<path d="M25.3894 403.833C901.144 679.514 1482.6 405.126 1905.75 644.233C1588.54 513.331 750.088 701.214 25.3894 403.833Z" fill="#A259FF"/>
<path d="M25.3682 403.826C901.144 679.521 1482.61 405.118 1905.76 644.241M25.3718 403.826C750.087 701.222 1588.56 513.323 1905.76 644.24" stroke="#A259FF" stroke-width="5"/>
<path d="M418.499 -324.262C1020.72 274.486 1688.43 273.15 1917.4 654.801C1717.44 410.853 876.295 231.597 418.499 -324.262Z" fill="#A259FF"/>
<path d="M418.485 -324.277C1020.72 274.493 1688.44 273.147 1917.4 654.813M418.488 -324.276C876.29 231.604 1717.47 410.857 1917.41 654.814" stroke="#A259FF" stroke-width="5"/>
<path d="M25.9599 404.78C918.221 540.666 1411.74 181.33 1865.76 351.07C1535.86 271.337 779.289 585.287 25.9599 404.78Z" fill="#7943BE"/>
<path d="M-12.0781 664.768C876.693 513.746 1175.13 26.8327 1672.09 43.3778C1330.37 71.8371 767.548 598.33 -12.0781 664.768Z" fill="#A259FF"/>
<path d="M1862.2 350.558C1193.63 458.815 859.015 89.1364 510.678 243.674C760.259 174.491 1292.41 506.99 1862.2 350.558Z" fill="#A259FF"/>
<path d="M1862.21 350.555C1193.63 458.822 859.011 89.1273 510.667 243.678M1862.21 350.554C1292.41 506.999 760.242 174.479 510.665 243.677" stroke="#A259FF" stroke-width="5"/>
<path d="M506.396 246.124C1156.01 75.311 1538.53 410.957 1863.7 224.458C1625.09 316.808 1051.35 36.7901 506.396 246.124Z" fill="#7943BE"/>
<path d="M-838.76 365.047C-209.499 147.415 206.658 453.821 511.084 244.272C283.046 353.706 -317.789 116.69 -838.76 365.047Z" fill="#A259FF"/>
<path d="M-838.775 365.052C-209.499 147.407 206.664 453.829 511.094 244.265M-838.772 365.053C-317.79 116.682 283.065 353.715 511.096 244.266" stroke="#A259FF" stroke-width="5"/>
<path d="M26.5288 411.241C486.598 -8.46559 1018.74 122.029 1188.55 -175.493C1037.3 4.30129 372.926 1.98451 26.5288 411.241Z" fill="#7943BE"/>
<path d="M1400.99 -607.068C1115.93 -90.0762 561.538 -78.7112 508.34 247.929C586.809 38.1404 1220.38 -129.004 1400.99 -607.068Z" fill="#A259FF"/>
<path d="M1401 -607.08C1115.94 -90.071 561.526 -78.7137 508.339 247.939M1401 -607.079C1220.39 -128.999 586.787 38.1446 508.336 247.94" stroke="#A259FF" stroke-width="5"/>
</g>
<defs>
<clipPath id="clip0_2521_12304">
<rect width="1556" height="782" fill="white"/>
</clipPath>
</defs>
</svg>
