<svg width="123" height="65" viewBox="0 0 123 65" fill="none" xmlns="http://www.w3.org/2000/svg">
<mask id="mask0_1004_1550" style="mask-type:luminance" maskUnits="userSpaceOnUse" x="52" y="8" width="15" height="28">
<path d="M52.6639 8.12H66.5839V35.5733H52.6639V8.12Z" fill="white"/>
</mask>
<g mask="url(#mask0_1004_1550)">
<mask id="mask1_1004_1550" style="mask-type:luminance" maskUnits="userSpaceOnUse" x="47" y="-1" width="31" height="38">
<path d="M48.4166 -0.799011L77.1115 0.172187L75.8926 36.1126L47.1993 35.1398L48.4166 -0.799011Z" fill="white"/>
</mask>
<g mask="url(#mask1_1004_1550)">
<mask id="mask2_1004_1550" style="mask-type:luminance" maskUnits="userSpaceOnUse" x="47" y="-1" width="31" height="38">
<path d="M48.4166 -0.799011L77.1115 0.172187L75.8926 36.1126L47.1993 35.1398L48.4166 -0.799011Z" fill="white"/>
</mask>
<g mask="url(#mask2_1004_1550)">
<path d="M65.1657 28.5378C65.0539 29.1435 64.7352 29.3761 63.9634 29.4018C63.8879 29.1133 64.2911 29.0725 64.4346 28.411C64.5358 27.9412 64.2549 27.553 63.7761 27.5062C62.163 27.3476 61.7687 28.6028 62.4545 29.1677C63.0073 29.6208 63.0194 29.6072 59.0515 29.7265C58.6271 29.7386 58.1996 29.6873 57.7752 29.657C57.7223 29.6525 57.674 29.5997 57.5849 29.5468C58.0123 29.3066 58.6376 29.0816 58.4866 28.4502C58.3205 27.7585 57.677 27.8325 57.1378 27.7872C59.0183 26.893 61.1827 26.9761 63.2656 27.0878C64.2866 27.1437 65.3484 27.5334 65.1657 28.5378ZM63.6326 28.3505C63.7111 28.6677 63.2157 28.8339 62.9982 28.6768C62.4741 28.2962 63.4967 27.7917 63.6326 28.3505ZM63.7942 33.8409C61.9228 34.4496 59.778 34.2789 58.9624 33.9648C57.7752 33.5086 57.9685 33.4573 58.0561 30.8744C58.479 30.7068 57.4671 30.7853 64.4965 30.5119C64.7352 31.4288 64.8802 33.4875 63.7942 33.8409ZM56.9717 28.71C57.0064 28.4094 57.5048 28.4125 57.6045 28.6647C57.7707 29.0846 56.9339 29.0348 56.9717 28.71ZM55.6349 22.0415C54.0626 19.9285 53.1609 19.3107 54.2892 18.1552C56.9218 15.4561 57.017 15.3187 57.455 15.2854C57.8764 15.4622 57.6695 15.8307 56.9958 17.2067C56.4642 18.2866 55.9189 18.631 56.5125 19.8363C56.7526 20.3212 57.3523 20.2049 57.4142 19.8499C57.5305 19.1823 56.9067 19.3288 57.7616 17.9181C59.2131 15.5256 58.7962 15.0302 57.9262 14.1345C57.8809 11.6106 58.0607 10.4506 58.6361 9.65762C59.4155 11.1937 58.7268 10.9883 59.0877 18.6869C59.2101 21.2954 59.5741 20.2049 58.6422 20.6625C58.4292 20.7667 58.2329 21.1217 58.5168 21.3498C58.9216 21.6745 59.9985 21.8708 61.08 22.9644C61.7657 23.6577 62.5149 22.9478 61.737 22.1956C61.1177 21.5944 61.0906 21.7893 60.6797 21.1323C61.524 21.0552 62.1116 21.2999 62.7762 20.2592C63.1326 19.7019 63.3939 19.1007 63.4967 18.4467C63.8108 16.4439 64.2458 14.4577 64.3576 12.4247C64.421 11.2753 64.6098 11.1031 64.7337 10.8252C65.6535 12.8763 64.995 19.6098 64.5328 21.7953C64.3259 22.7695 64.3183 24.6606 64.2821 25.511C64.2443 26.4202 64.3591 26.0743 62.1116 26.0758C55.4522 26.0819 60.0801 28.0182 55.6349 22.0415ZM59.994 14.2327C60.7719 14.0756 60.7145 14.6979 60.7235 15.3277C60.7462 16.7687 60.6299 17.912 60.2689 19.711C60.1722 19.4995 60.071 19.3787 60.0635 19.2518C59.7886 14.0333 59.855 14.9909 59.994 14.2327ZM61.296 19.3575C61.7053 15.2703 61.6056 14.9411 62.2717 14.4381C63.5299 15.3534 62.2898 20.2547 61.4682 19.9511C61.2205 19.859 61.2718 19.5916 61.296 19.3575ZM65.6127 21.537C66.0145 19.6717 66.6867 12.1287 65.6414 10.1666C64.9814 8.92658 63.6281 9.63647 63.409 11.6755C63.2927 12.7555 63.3879 12.7797 63.1613 13.6678C62.0285 13.4004 62.4801 13.3914 61.4319 13.6919C60.7462 13.2328 61.1057 13.3763 60.0529 13.0757C60.0605 11.7193 60.142 9.89929 59.4336 8.99757C58.7086 8.07319 57.4625 8.32845 57.1212 10.7602C56.9883 11.7088 56.9837 12.3235 56.8206 14.349C55.5443 15.2265 53.972 16.817 52.9857 18.4377C51.7879 20.4012 56.5502 23.6305 56.9067 26.4942C55.1184 27.692 55.5564 29.8066 56.8931 30.5708C57.5743 30.9605 55.8252 34.223 58.6059 34.9208C61.3534 35.6111 65.4451 35.5462 65.6218 32.6915C65.7411 30.7763 65.3197 30.2642 65.8227 29.5241C66.7999 28.0892 65.5599 26.8341 65.2684 26.4081C65.356 23.8268 65.3303 22.8511 65.6127 21.537Z" fill="white"/>
</g>
</g>
</g>
<mask id="mask3_1004_1550" style="mask-type:luminance" maskUnits="userSpaceOnUse" x="61" y="0" width="8" height="9">
<path d="M61.1706 0H68.5173V8.89333H61.1706V0Z" fill="white"/>
</mask>
<g mask="url(#mask3_1004_1550)">
<mask id="mask4_1004_1550" style="mask-type:luminance" maskUnits="userSpaceOnUse" x="47" y="-1" width="31" height="38">
<path d="M48.4166 -0.799011L77.1115 0.172187L75.8926 36.1126L47.1992 35.1398L48.4166 -0.799011Z" fill="white"/>
</mask>
<g mask="url(#mask4_1004_1550)">
<mask id="mask5_1004_1550" style="mask-type:luminance" maskUnits="userSpaceOnUse" x="47" y="-1" width="31" height="38">
<path d="M48.4166 -0.799011L77.1115 0.172187L75.8926 36.1126L47.1992 35.1398L48.4166 -0.799011Z" fill="white"/>
</mask>
<g mask="url(#mask5_1004_1550)">
<path d="M68.0128 0.128381C67.534 -0.143494 67.2183 0.394214 66.9056 0.85036C62.8109 6.83614 64.5222 4.78046 63.3547 3.19906C63.1477 2.91812 62.6719 2.99515 62.539 3.31838C62.4529 3.52833 62.4122 3.7564 62.3578 3.97843C61.3685 7.98406 61.1056 8.42057 61.7083 8.61692C62.5103 8.87671 62.388 7.22281 63.0722 5.86645C63.1915 6.1489 63.2595 6.36187 63.3652 6.5552C63.5767 6.94791 64.0041 7.00984 64.4271 6.37999C68.188 0.773328 68.6034 0.463693 68.0128 0.128381Z" fill="white"/>
</g>
</g>
</g>
<mask id="mask6_1004_1550" style="mask-type:luminance" maskUnits="userSpaceOnUse" x="68" y="12" width="9" height="5">
<path d="M68.1306 12.3733H76.6373V16.24H68.1306V12.3733Z" fill="white"/>
</mask>
<g mask="url(#mask6_1004_1550)">
<mask id="mask7_1004_1550" style="mask-type:luminance" maskUnits="userSpaceOnUse" x="47" y="-1" width="31" height="38">
<path d="M48.4167 -0.799042L77.1116 0.172156L75.8926 36.1125L47.1993 35.1398L48.4167 -0.799042Z" fill="white"/>
</mask>
<g mask="url(#mask7_1004_1550)">
<mask id="mask8_1004_1550" style="mask-type:luminance" maskUnits="userSpaceOnUse" x="47" y="-1" width="31" height="38">
<path d="M48.4167 -0.799042L77.1116 0.172156L75.8926 36.1125L47.1993 35.1398L48.4167 -0.799042Z" fill="white"/>
</mask>
<g mask="url(#mask8_1004_1550)">
<path d="M76.4696 13.8701C76.2521 13.4034 75.7884 13.5907 75.3383 13.7342C71.3961 14.9954 72.9156 14.6117 73.038 13.1089C73.0742 12.6739 72.6196 12.396 71.9293 12.8461C68.5112 15.08 68.4463 15.1359 68.2922 15.3307C67.972 15.731 68.3391 16.2022 68.7605 16.024C69.4749 15.7219 70.1108 15.299 71.4082 14.503C71.0472 16.5375 71.082 16.2279 75.8926 14.6163C76.2989 14.4818 76.6327 14.216 76.4696 13.8701Z" fill="white"/>
</g>
</g>
</g>
<mask id="mask9_1004_1550" style="mask-type:luminance" maskUnits="userSpaceOnUse" x="48" y="9" width="8" height="6">
<path d="M48.4106 9.27997H55.7573V14.3066H48.4106V9.27997Z" fill="white"/>
</mask>
<g mask="url(#mask9_1004_1550)">
<mask id="mask10_1004_1550" style="mask-type:luminance" maskUnits="userSpaceOnUse" x="47" y="-1" width="31" height="38">
<path d="M48.4166 -0.799042L77.1115 0.172156L75.8926 36.1125L47.1992 35.1398L48.4166 -0.799042Z" fill="white"/>
</mask>
<g mask="url(#mask10_1004_1550)">
<mask id="mask11_1004_1550" style="mask-type:luminance" maskUnits="userSpaceOnUse" x="47" y="-1" width="31" height="38">
<path d="M48.4166 -0.799042L77.1115 0.172156L75.8926 36.1125L47.1992 35.1398L48.4166 -0.799042Z" fill="white"/>
</mask>
<g mask="url(#mask11_1004_1550)">
<path d="M55.4386 14.0635C55.5277 13.9653 55.5518 13.7689 55.5367 13.6239C55.5126 13.411 52.8527 10.3856 52.602 10.2104C52.2033 9.93097 51.8453 10.3056 51.8287 10.6076C51.7456 12.0667 52.7953 12.6875 49.6416 9.74821C48.545 8.72565 48.0617 9.61831 48.8562 10.3675C52.6775 13.9789 52.5461 14.1027 53.182 12.4413C54.1154 13.4699 54.9235 14.6193 55.4386 14.0635Z" fill="white"/>
</g>
</g>
</g>
<mask id="mask12_1004_1550" style="mask-type:luminance" maskUnits="userSpaceOnUse" x="59" y="27" width="3" height="3">
<path d="M59.2373 27.4533H61.5573V29.7733H59.2373V27.4533Z" fill="white"/>
</mask>
<g mask="url(#mask12_1004_1550)">
<mask id="mask13_1004_1550" style="mask-type:luminance" maskUnits="userSpaceOnUse" x="47" y="-1" width="31" height="38">
<path d="M48.4166 -0.799042L77.1115 0.172156L75.8926 36.1125L47.1993 35.1398L48.4166 -0.799042Z" fill="white"/>
</mask>
<g mask="url(#mask13_1004_1550)">
<mask id="mask14_1004_1550" style="mask-type:luminance" maskUnits="userSpaceOnUse" x="47" y="-1" width="31" height="38">
<path d="M48.4166 -0.799042L77.1115 0.172156L75.8926 36.1125L47.1993 35.1398L48.4166 -0.799042Z" fill="white"/>
</mask>
<g mask="url(#mask14_1004_1550)">
<path d="M60.5559 28.497C60.4516 28.633 60.0302 28.6224 59.9517 28.5786C59.8218 28.5091 59.7931 28.1949 59.8973 28.0952C60.2236 27.7796 60.7628 28.2297 60.5559 28.497ZM59.92 27.6195C58.9397 27.9774 59.1723 29.3912 60.2568 29.4184C61.5603 29.4501 62.1191 26.8159 59.92 27.6195Z" fill="white"/>
</g>
</g>
</g>
<path d="M3.81338 16.4832C4.31634 16.3321 4.81931 16.1811 5.34947 16.021C5.69384 15.9485 6.02009 15.8201 6.38108 15.8035C6.65749 15.8125 6.76624 15.8714 6.85082 16.1509C6.97921 16.4771 7.0789 16.8124 7.18765 17.1764C7.239 17.3441 7.16952 17.5163 7.08192 17.6341C6.66051 18.1567 6.11223 18.5645 5.63796 19.0116C5.36004 19.3076 5.00358 19.5372 4.69848 19.8408C4.13963 20.3136 3.59739 20.8422 3.03853 21.3135C2.70624 21.6276 2.52952 21.9539 2.47062 22.3677C2.41322 22.7816 2.55822 23.1637 2.70322 23.5474C2.75306 23.715 2.93582 23.8117 3.12765 23.8464C3.55056 23.9325 3.91306 23.8238 4.23478 23.5746C4.45228 23.3873 4.66978 23.2 4.88879 23.0127C5.27697 22.6834 5.64853 22.2983 6.05332 22.0234C6.69374 21.6186 7.19973 21.0718 7.77822 20.5628C8.26155 20.1429 8.62103 20.1263 9.14968 20.3649C9.73421 20.5854 10.3172 20.806 10.9441 20.8619C11.3851 20.9117 11.8261 20.963 12.2596 20.9842C13.2625 21.0794 14.2549 20.9344 15.2216 20.7048C15.9284 20.5235 16.5915 20.2939 17.2561 19.9737C17.4434 19.8861 17.6669 19.8197 17.8542 19.7336C18.182 19.6052 18.472 19.4557 18.7907 19.3001C18.8934 19.2382 19.0248 19.1687 19.129 19.1067C19.3828 18.9391 19.6561 18.7352 19.919 18.5962C20.2573 18.4029 20.4869 18.1522 20.6711 17.8531C20.7497 17.7066 20.8645 17.5812 20.9053 17.4166C21.0533 17.0979 21.23 16.7716 21.3418 16.4333C21.4445 16.0663 21.4203 15.6781 21.4037 15.3186C21.3674 14.9939 21.2662 14.6586 21.1741 14.3504C21.017 13.7282 20.8252 13.0847 20.6122 12.479C20.4446 11.9202 20.1938 11.387 20.0624 10.8463C20.0564 10.727 19.9869 10.5955 19.9341 10.52C19.6652 10.2346 19.3782 9.98685 18.984 9.8917C18.7182 9.8192 18.478 9.82977 18.1895 9.88565C17.679 10.008 17.1866 10.0956 16.6836 10.2466C16.2366 10.3796 15.7985 10.5427 15.3515 10.6771C14.3168 10.9867 13.2837 11.2964 12.2687 11.5698C11.2628 11.8719 10.2402 12.118 9.19801 12.4005C8.19207 12.7026 7.20577 12.9669 6.20739 13.2977C5.21051 13.627 4.24082 13.9487 3.27114 14.2689C2.48874 14.5045 1.70634 14.7386 0.923948 14.9742C0.644521 15.0573 0.445146 15.2084 0.218584 15.367C0.144573 15.4213 0.0766047 15.5014 0.0660316 15.5663C-0.0261037 15.8684 -0.0261037 16.172 0.0932194 16.4711C0.143063 16.6387 0.24124 16.7626 0.283532 16.9015C0.353011 17.0329 0.470823 17.119 0.635459 17.1613C1.01306 17.2006 1.3816 17.2112 1.74562 17.1024C2.44343 16.894 3.11405 16.6916 3.81338 16.4832ZM12.7988 13.8475C13.8607 13.5288 14.8666 13.2282 15.8741 12.9261C16.4405 12.7857 16.9887 12.6829 17.5551 12.5425C17.6473 12.5455 17.7394 12.5485 17.8316 12.5515C18.0808 12.5682 18.2424 12.7026 18.3104 12.9261C18.333 13.1013 18.3829 13.269 18.4055 13.4457C18.4629 13.9457 18.5143 14.4184 18.5007 14.8791C18.5112 15.4244 18.3572 15.9273 18.0309 16.3608C17.8285 16.604 17.528 16.8154 17.2531 17.0194C16.5356 17.5707 15.7306 17.9332 14.8983 18.3047C14.196 18.6068 13.4725 18.7322 12.7263 18.6823C12.3019 18.6884 11.9168 18.6204 11.4833 18.5977C11.2628 18.5736 11.0332 18.5207 10.8157 18.4029C10.4773 18.2911 10.2251 18.0615 10.0212 17.7882C9.77348 17.4664 9.57259 17.1009 9.3702 16.7339C9.23879 16.4998 9.13608 16.2566 9.0515 15.9772C8.97749 15.7249 9.02129 15.4682 9.13004 15.222C9.20858 15.077 9.35963 14.9712 9.52728 14.9214C10.497 14.5997 11.4757 14.3066 12.4439 13.9849C12.5844 13.9426 12.7158 13.8732 12.7988 13.8475Z" fill="white"/>
<path d="M5.75596 29.4322C5.65627 29.4926 5.51731 29.5425 5.40705 29.6437C5.28169 29.7192 5.23789 29.8143 5.20768 29.9352C5.16841 30.0953 5.24393 30.2191 5.28018 30.3339C5.45236 30.8444 5.79523 31.1828 6.33143 31.3353C6.50664 31.3988 6.71658 31.4078 6.94617 31.3368C7.21049 31.2115 7.48085 31.1495 7.76028 31.0483C8.46414 30.8595 9.19367 30.6556 9.88393 30.4427C10.2041 30.3505 10.5334 30.3898 10.7358 30.778C11.1451 31.4516 11.5529 32.1253 11.9623 32.7989C12.0831 32.9983 12.1782 33.2128 12.21 33.4333C12.3127 33.8834 12.2387 34.2686 11.8852 34.5857C11.775 34.6869 11.7055 34.7972 11.5967 34.8969C11.0681 35.3198 10.6905 35.8228 10.3824 36.3847C10.1996 36.7003 10.041 37.0009 10.1618 37.371C10.1921 37.4208 10.1724 37.5008 10.1785 37.5658C10.1785 37.7365 10.2706 37.886 10.4458 37.9494C10.6754 38.0491 10.9065 38.1473 11.1617 38.2319C11.2418 38.2515 11.3067 38.2455 11.3717 38.241C11.5212 38.1503 11.6768 38.1247 11.8112 38.0083C12.0106 37.8875 12.2054 37.7017 12.3897 37.5552C13.5512 36.5432 14.6961 35.5071 15.8319 34.5117C16.6491 33.7777 17.4572 33.0829 18.2335 32.3382C18.8664 31.7507 19.469 31.1118 20.0853 30.4986C20.3843 30.1466 20.6985 29.8204 21.0368 29.4775C21.8132 28.7344 22.6303 28.0003 23.4324 27.2406C23.8311 26.8282 24.2284 26.4159 24.612 25.9794C24.7223 25.8782 24.8567 25.7619 24.9503 25.6365C25.2434 25.2196 25.3868 24.7242 25.3446 24.2046C25.3174 23.8784 25.1754 23.5899 24.9005 23.4162C24.3779 23.1187 23.7918 22.9963 23.2179 23.173C23.1031 23.2093 22.9974 23.2048 22.8826 23.2395C22.6877 23.2561 22.4929 23.2727 22.3026 23.3528C21.4235 23.6473 20.5354 23.9826 19.6714 24.3013C18.8316 24.6049 18.0085 24.9342 17.1777 25.1985C16.3394 25.5036 15.5253 25.7921 14.6855 26.0972C14.0119 26.3343 13.3186 26.653 12.6435 26.8917C11.5741 27.2678 10.476 27.5925 9.38096 27.9837C8.54268 28.2873 7.70289 28.5924 6.83893 28.9111C6.48549 29.0576 6.10033 29.1543 5.75596 29.4322ZM13.5029 30.8399C13.3413 30.6315 13.1902 30.3823 13.0392 30.1315C12.9637 30.0077 12.9033 29.908 12.867 29.7932C12.8111 29.5878 12.8761 29.4126 13.0347 29.2812C13.1449 29.1815 13.305 29.0501 13.444 28.9987C14.5783 28.6181 15.6718 28.2284 16.7956 27.887C17.4451 27.665 18.1353 27.4505 18.7788 27.162C19.0431 27.0367 19.3633 26.9445 19.6533 26.8026C19.7424 26.7829 19.8572 26.7467 19.9176 26.8464C19.978 26.9461 19.9735 27.0518 19.8648 27.153C19.7696 27.2783 19.6458 27.3539 19.5113 27.4687C18.8785 28.0577 18.2214 28.6619 17.5886 29.2494C17.0055 29.8083 16.4482 30.3505 15.8652 30.9094C15.5963 31.1405 15.3667 31.3821 15.1236 31.5981C14.9786 31.7537 14.829 31.8443 14.6085 31.8761C14.3487 31.8972 14.1584 31.8081 14.0119 31.6238C13.8367 31.3897 13.669 31.1148 13.4787 30.855C13.4787 30.855 13.4787 30.855 13.5029 30.8399Z" fill="white"/>
<path d="M17.7497 42.5641C17.5412 42.768 17.3328 42.972 17.1032 43.197C16.7498 43.5021 16.3948 43.848 16.0806 44.2377C15.8496 44.5443 15.7 44.9748 16.0051 45.3705C16.1486 45.517 16.2906 45.7043 16.4537 45.8297C16.5972 45.9762 16.7815 46.0819 16.9884 46.0426C17.153 46.0034 17.3388 45.9837 17.5261 45.9248C18.0653 45.6832 18.523 45.3584 18.9595 44.9717C19.7525 44.28 20.5031 43.5459 21.2538 42.8119C21.6918 42.4237 22.0891 42.037 22.4848 41.6488C23.3609 40.7924 24.2369 39.9783 25.1129 39.1219C25.7609 38.4483 26.4074 37.7746 27.075 37.1221C27.5976 36.6116 28.099 36.0814 28.6398 35.5921C28.8905 35.3474 29.1412 35.145 29.3904 34.9411C29.4735 34.8595 29.5777 34.8399 29.6608 34.8006C29.91 34.6798 30.1154 34.7221 30.3405 34.9109C30.5232 35.0982 30.7272 35.3066 30.9311 35.4742C31.4839 35.9138 31.7301 35.9999 32.375 35.5739C32.7285 35.3504 32.9792 34.9819 33.1906 34.6133C33.3372 34.3475 33.3205 34.0786 33.0759 33.8279C32.8523 33.5575 32.6273 33.2872 32.3629 33.0561C31.8721 32.5969 31.4446 32.1181 31.0383 31.6182C30.4477 30.9309 29.8572 30.2845 29.2454 29.6169C28.9192 29.283 28.3211 29.2151 27.9268 29.4779C27.5311 29.7422 27.1777 30.0473 26.9662 30.4989C26.7971 30.8675 26.8348 31.1983 27.0372 31.4898C27.1792 31.7178 27.3831 31.9263 27.5447 32.1755C27.6066 32.2389 27.6882 32.322 27.6867 32.4051C27.7244 32.6936 27.7018 32.9624 27.4722 33.1452C26.1778 34.4094 24.906 35.6525 23.6116 36.9167C22.7144 37.7942 21.8172 38.6703 20.92 39.5478C20.6285 39.8333 20.3159 40.1384 20.0228 40.4239C19.544 40.8528 19.0652 41.2803 18.5849 41.7077C18.2934 41.9932 18.0427 42.2787 17.7497 42.5641Z" fill="white"/>
<path d="M27.0794 46.9829C27.0552 46.9678 27.0552 46.9678 27.0552 46.9678C26.2955 48.1082 25.5358 49.25 24.776 50.3919C24.5177 50.7801 24.3395 51.1532 24.2836 51.6063C24.2595 51.9054 24.2443 52.1395 24.4543 52.3494C24.625 52.5684 24.7941 52.7874 24.9965 52.9566C25.2729 53.1741 25.5886 53.3856 25.8801 53.5789C26.5115 53.9988 27.1187 54.4036 27.75 54.8235C28.2756 55.1392 28.7696 55.5017 29.3118 55.7932C29.5066 55.9231 29.7498 55.9789 29.9598 55.9789C30.2105 55.9699 30.4371 55.8415 30.5987 55.5983C30.7603 55.3551 30.9461 55.1286 31.1077 54.8854C31.2043 54.7404 31.2935 54.5531 31.3418 54.3749C31.4717 54.0758 31.3977 53.8175 31.1877 53.6076C30.8962 53.3085 30.5881 53.0336 30.2649 52.7829C29.8918 52.4989 29.4628 52.2497 29.0747 51.9899C29.0505 51.9748 29.0173 51.9174 28.9689 51.8857C28.7831 51.6909 28.5808 51.5217 28.3935 51.3269C28.3617 51.271 28.3043 51.1985 28.2726 51.1411C28.0868 50.842 28.1503 50.5354 28.321 50.2273C28.4418 49.9917 28.5792 49.7334 28.7409 49.4902C29.1441 48.883 29.5655 48.2517 30.0413 47.6928C30.6002 47.0131 31.0926 46.3244 31.5533 45.5797C31.7798 45.2399 31.9248 45.2323 32.2813 45.4332C32.7676 45.7564 33.2449 46.0404 33.7222 46.3229C33.9412 46.4679 34.1678 46.5494 34.4261 46.5811C34.701 46.5887 34.8958 46.5071 35.074 46.3455C35.438 45.9573 35.728 45.5193 35.9471 45.0345C36.0996 44.6463 35.9939 44.3306 35.6299 44.0874C35.2175 43.8125 34.7886 43.5633 34.3747 43.2884C34.1889 43.1993 34.0031 43.1102 33.8174 43.0211C33.4126 42.787 33.3476 42.4637 33.5817 42.0589C34.1633 41.1844 34.7689 40.3265 35.4486 39.5169C35.5136 39.4187 35.5936 39.2979 35.7235 39.2088C36.006 39.0472 36.2809 39.0547 36.5482 39.233C36.9364 39.4912 37.3261 39.7495 37.7309 39.9836C38.0133 40.1377 38.2731 40.2751 38.5722 40.4035C38.6854 40.4443 38.832 40.4368 38.9286 40.5002C39.2277 40.6301 39.4875 40.6618 39.7775 40.6452C40.0282 40.6376 40.2714 40.5893 40.4813 40.3779C40.7245 40.1196 40.8287 39.8039 40.9586 39.5033C41.1202 39.1559 40.9571 38.5578 40.5614 38.363C40.14 38.153 39.7518 37.8947 39.3636 37.6364C38.7564 37.2317 38.1251 36.8118 37.5179 36.407C37.0799 36.117 36.6267 35.8496 36.1736 35.5838C36.1011 35.5355 35.9954 35.5355 35.9063 35.5113C35.4849 35.5113 35.1299 35.7303 34.7976 35.9644C34.4668 36.2 34.2161 36.5233 33.9654 36.848C33.3431 37.7301 32.6559 38.6046 32.0336 39.4867C31.5246 40.1996 31.0155 40.911 30.5549 41.6572C30.135 42.2885 29.7543 42.9108 29.3586 43.5588C28.5989 44.7007 27.8391 45.8425 27.0794 46.9829Z" fill="white"/>
<path d="M44.1256 59.1902C44.0471 59.4711 43.9686 59.752 43.881 60.0602C43.7269 60.5012 43.5925 60.98 43.5154 61.4724C43.4686 61.853 43.5547 62.3016 44.0169 62.4919C44.2133 62.5478 44.4308 62.6384 44.6347 62.6656C44.831 62.72 45.044 62.72 45.2041 62.5826C45.3264 62.4663 45.479 62.3575 45.6104 62.2125C45.9563 61.7337 46.1904 61.2232 46.3762 60.6704C46.716 59.675 47 58.663 47.2839 57.6526C47.4697 57.0982 47.6192 56.5651 47.7703 56.0304C48.1011 54.8507 48.4515 53.7074 48.7838 52.5277C49.0073 51.6215 49.2309 50.7137 49.4831 49.815C49.681 49.1127 49.8501 48.4028 50.0752 47.708C50.1703 47.3712 50.2851 47.0706 50.3999 46.77C50.4301 46.6567 50.5102 46.5888 50.563 46.5117C50.7171 46.2837 50.918 46.2187 51.2065 46.2685C51.4587 46.3395 51.7397 46.4181 52.001 46.4619C52.6988 46.5661 52.9555 46.5178 53.2999 45.826C53.4948 45.4559 53.5295 45.0119 53.5265 44.5875C53.5219 44.2824 53.3724 44.0588 53.0356 43.9637C52.7063 43.8413 52.3771 43.719 52.0312 43.6525C51.3772 43.4984 50.7685 43.2976 50.1658 43.068C49.3109 42.7674 48.4756 42.5031 47.6132 42.2297C47.1631 42.1043 46.6118 42.343 46.4018 42.7689C46.1904 43.1949 46.0363 43.6359 46.0786 44.1328C46.1164 44.5376 46.3142 44.805 46.636 44.956C46.8731 45.0829 47.154 45.1614 47.4184 45.2958C47.5029 45.32 47.6162 45.3517 47.6555 45.4242C47.8337 45.6553 47.947 45.8985 47.8398 46.1719C47.3504 47.9134 46.8701 49.6277 46.3807 51.3692C46.0424 52.576 45.704 53.7844 45.3642 54.9927C45.2539 55.3854 45.1361 55.8068 45.0259 56.1995C44.8235 56.8097 44.6226 57.42 44.4202 58.0302C44.3099 58.4229 44.2359 58.7959 44.1256 59.1902Z" fill="white"/>
<path d="M54.5756 54.6662C54.6043 54.6677 54.6043 54.6677 54.633 54.6692C54.6164 54.9894 54.5998 55.2809 54.5847 55.5724C54.5575 56.6222 54.5288 57.7021 54.4714 58.7503C54.3959 60.149 54.2645 61.5159 54.1603 62.9115C54.1406 63.262 54.1799 63.6139 54.2781 63.9703C54.2992 64.1169 54.4095 64.2407 54.5832 64.2785C54.7826 64.348 54.9834 64.4174 55.1858 64.4567C55.7054 64.573 56.1268 64.3615 56.3307 63.8178C56.4017 63.5882 56.4455 63.3269 56.4878 63.0671C56.5346 62.7484 56.5226 62.4267 56.5407 62.105C56.6676 60.8272 56.7672 59.5176 56.8956 58.2383C56.9681 57.4242 57.0119 56.6086 57.1433 55.7975C57.1811 55.654 57.2173 55.5105 57.2536 55.3957C57.3578 55.0785 57.5406 54.9426 57.891 54.932C58.1251 54.9456 58.3305 54.9275 58.5646 54.9109C58.9151 54.9003 59.2957 54.8912 59.6476 54.8807C59.9104 54.8671 60.1732 54.8807 60.4073 54.864C60.5539 54.8716 60.6958 54.9381 60.7774 55.0589C60.9405 55.2719 61.016 55.5105 61.0311 55.7733C61.0508 55.95 61.0402 56.1252 61.0296 56.3291C60.9828 57.2037 60.936 58.0767 60.8877 58.9512C60.8318 59.9995 60.7774 61.019 60.72 62.0687C60.6958 62.5339 60.6112 62.9976 60.6445 63.4659C60.6822 63.848 60.8091 64.206 61.1142 64.5141C61.3378 64.7014 61.6006 64.7165 61.8619 64.7301C62.241 64.7497 62.6624 64.5096 62.7983 64.1667C62.9041 63.8223 63.04 63.478 63.0898 63.1019C63.1729 62.6382 63.1971 62.2016 63.2212 61.7349C63.2515 61.1821 63.2499 60.6565 63.2802 60.1022C63.3542 58.7337 63.4267 57.394 63.5007 56.024C63.5339 54.858 63.5384 53.6889 63.6019 52.5229C63.6502 51.6212 63.6985 50.7179 63.7771 49.8162C63.8375 48.6804 63.9009 47.5144 63.8753 46.374C63.8647 46.0221 63.8526 45.7003 63.8405 45.3786C63.8269 45.0856 63.6638 44.8726 63.5007 44.6597C63.4463 44.569 63.333 44.5041 63.2469 44.4694C62.9312 44.3651 62.5823 44.347 62.2591 44.3591C62.1141 44.35 61.9646 44.4301 61.8981 44.5721C61.8332 44.6853 61.7667 44.8288 61.7305 44.9723C61.5462 45.6641 61.4208 46.3589 61.4118 47.0884C61.3861 48.1095 61.3287 49.1577 61.3015 50.2089C61.2728 50.7331 61.2456 51.2572 61.2169 51.7813C61.1958 52.1604 60.9813 52.3537 60.6007 52.3613C60.5131 52.3568 60.427 52.3522 60.3394 52.3477C60.1914 52.3688 60.0464 52.3613 59.8998 52.3537C59.3153 52.3794 58.7323 52.3492 58.1508 52.2888C57.9484 52.248 57.746 52.2072 57.5436 52.1679C57.4273 52.1619 57.3729 52.1 57.3185 52.0094C57.2128 51.7994 57.166 51.5925 57.2083 51.3614C57.2747 50.1077 57.3714 48.8571 57.4394 47.605C57.4741 46.9631 57.4771 46.3498 57.5119 45.7094C57.5285 45.4179 57.4862 45.1234 57.3548 44.853C57.2506 44.6144 57.0874 44.3712 56.8307 44.27C56.6011 44.199 56.3987 44.1597 56.1631 44.1763C55.929 44.1914 55.7477 44.2987 55.6495 44.4981C55.358 45.0373 55.1511 45.6112 55.0907 46.1927C55.0212 46.9479 54.9789 47.7349 54.9396 48.4629C54.8233 50.0639 54.7674 51.6378 54.6527 53.2388C54.6255 53.7343 54.5998 54.1995 54.5756 54.6662Z" fill="white"/>
<path d="M68.0286 58.5361C67.9999 58.5421 67.9999 58.5421 67.9999 58.5421C68.2386 59.8924 68.4757 61.2428 68.7143 62.5931C68.7944 63.0522 68.9228 63.4449 69.1962 63.812C69.385 64.0446 69.5345 64.2258 69.832 64.2319C70.1069 64.2727 70.3803 64.3134 70.6431 64.2968C70.9936 64.2651 71.3666 64.1986 71.7125 64.1382C72.4587 64.0068 73.1776 63.8799 73.9238 63.7485C74.5219 63.6126 75.1306 63.5356 75.7242 63.3709C75.9538 63.3317 76.1682 63.2048 76.3208 63.0583C76.496 62.8801 76.57 62.6293 76.5202 62.3423C76.4688 62.0554 76.4477 61.7623 76.3963 61.4754C76.3661 61.3032 76.3027 61.1068 76.2151 60.9452C76.1018 60.6386 75.8692 60.5011 75.5716 60.4951C75.1548 60.48 74.7424 60.4936 74.3346 60.5359C73.8709 60.5872 73.3876 60.702 72.9269 60.7836C72.8982 60.7881 72.8363 60.77 72.7789 60.7806C72.51 60.7685 72.2457 60.7851 71.9783 60.773C71.9149 60.7549 71.8243 60.7413 71.7608 60.7232C71.4195 60.6341 71.2549 60.3682 71.1642 60.0284C71.0902 59.7746 71.0117 59.4922 70.9603 59.2052C70.8335 58.4862 70.702 57.7401 70.6613 57.006C70.5963 56.1285 70.4785 55.2902 70.2973 54.4338C70.2263 54.032 70.326 53.9248 70.7232 53.8251C71.2972 53.7239 71.8379 53.5985 72.3786 53.4747C72.6384 53.4294 72.8574 53.3312 73.0674 53.1756C73.2713 52.9914 73.3558 52.798 73.3725 52.5579C73.3679 52.0262 73.2773 51.5096 73.0991 51.0067C72.942 50.62 72.649 50.4644 72.217 50.5399C71.7291 50.626 71.2458 50.7408 70.7579 50.8269C70.5616 50.8919 70.3652 50.9553 70.1689 51.0203C69.7142 51.1305 69.4439 50.9402 69.3351 50.4856C69.1524 49.4509 68.9983 48.4118 68.9303 47.3575C68.9107 47.2427 68.885 47.0992 68.9182 46.9452C69.0104 46.6325 69.2158 46.4482 69.5315 46.3923C69.9906 46.3123 70.4498 46.2307 70.9044 46.1205C71.2156 46.0359 71.498 45.9573 71.8047 45.8441C71.9134 45.7942 72.0146 45.6885 72.1294 45.6689C72.4345 45.5556 72.6444 45.4 72.8438 45.187C73.019 45.0073 73.161 44.8049 73.1686 44.5073C73.1655 44.1524 73.0236 43.8518 72.9103 43.5452C72.7864 43.1827 72.2563 42.861 71.8349 42.9939C71.3863 43.1329 70.9256 43.2144 70.4664 43.2945C69.7475 43.4214 69.0013 43.5528 68.2824 43.6796C67.7658 43.7718 67.2538 43.8911 66.7417 44.0104C66.6556 44.027 66.5786 44.0995 66.4986 44.1433C66.1935 44.4333 66.0877 44.8381 66.0092 45.2369C65.9322 45.6356 65.9744 46.0419 66.0152 46.4497C66.1753 47.5176 66.2811 48.6247 66.4397 49.6926C66.5635 50.5596 66.6858 51.4266 66.8671 52.283C66.9985 53.0306 67.1541 53.7435 67.3142 54.4852C67.5528 55.8355 67.79 57.1858 68.0286 58.5361Z" fill="white"/>
<path d="M86.3157 54.2427C86.7235 54.9828 87.1192 55.6987 87.527 56.4388C87.7687 56.9388 88.0889 57.3964 88.4318 57.839C88.7067 58.1547 89.0435 58.4024 89.4649 58.502C89.6492 58.5338 89.779 58.5292 89.9573 58.4295C90.4829 58.1743 91.0448 57.8647 91.5704 57.6079C92.4525 57.1548 93.253 56.6125 93.8874 55.8301C94.3118 55.3302 94.6018 54.7698 94.6668 54.1007C94.7544 53.353 94.6607 52.6386 94.4221 51.9045C94.197 51.1947 93.907 50.4878 93.5672 49.8096C93.3406 49.4018 93.0899 49.0061 92.8392 48.6118C92.5748 48.1919 92.2063 47.8279 91.8785 47.476C91.7547 47.3114 91.6051 47.1603 91.4299 47.0244C91.0372 46.674 90.6083 46.3779 90.1159 46.1499C89.9286 46.0532 89.7881 45.7979 89.8455 45.5986C90.0252 44.8992 89.8938 44.2392 89.6582 43.5701C89.409 42.8753 89.0812 42.2213 88.7444 41.608C88.2641 40.7395 87.6977 39.9541 86.9515 39.2654C86.4093 38.7654 85.7553 38.4256 85.0424 38.2202C84.7509 38.1144 84.4367 38.0873 84.1392 38.1522C83.8401 38.2156 83.5289 38.2549 83.245 38.344C82.9867 38.4195 82.7435 38.5207 82.5381 38.634C81.798 39.0418 81.0715 39.4768 80.345 39.9103C80.1396 40.0236 79.9493 40.1611 79.774 40.3257C79.4584 40.5991 79.2499 40.948 79.3194 41.3754C79.3693 41.6473 79.4055 41.8935 79.5067 42.1382C79.8043 43.0399 80.3208 43.8555 80.7603 44.7119C81.073 45.3388 81.5125 45.8961 81.8252 46.5229C82.6031 47.9941 83.4821 49.4078 84.3763 50.8473C84.5183 51.1025 84.7101 51.3291 84.8642 51.61C85.1149 52.0057 85.3158 52.4287 85.5408 52.8365C85.8082 53.3228 86.0619 53.782 86.3157 54.2427ZM88.4106 53.0872C88.0436 52.4226 87.6388 51.7475 87.2974 51.0693C87.1283 50.7627 87.0361 50.4138 86.944 50.0649C86.8564 49.8459 87.0074 49.6963 87.16 49.6117C87.6176 49.293 88.0889 49 88.6417 48.7946C88.9513 48.6904 89.2519 48.6919 89.557 48.8233C89.7292 48.8943 89.9135 48.926 90.1008 49.0227C90.4738 49.216 90.7336 49.506 90.9677 49.8111C91.8604 50.885 92.3301 52.1583 92.5144 53.5222C92.5235 53.717 92.4918 53.9013 92.3407 54.0508C92.1444 54.359 91.9193 54.6157 91.587 54.8C91.3574 54.9269 91.1671 55.0643 90.9511 55.2169C90.6475 55.451 90.2956 55.4782 89.9422 55.4404C89.7322 55.4223 89.6476 55.2698 89.5631 55.1157C89.1824 54.4269 88.8018 53.7367 88.4363 53.0721C88.4106 53.0872 88.4106 53.0872 88.4106 53.0872ZM87.0135 43.0626C87.1826 43.3692 87.3382 43.6501 87.453 43.9205C87.5421 44.2029 87.6327 44.4869 87.6962 44.7844C87.82 45.2497 87.6539 45.6741 87.3699 46.0653C87.0965 46.4157 86.7537 46.6377 86.3836 46.8749C86.2824 46.9307 86.1797 46.9881 86.0921 47.0697C85.8384 47.2751 85.4985 47.263 85.3037 46.97C84.8959 46.2299 84.4095 45.5306 83.9896 44.8298C83.5697 44.1289 83.1393 43.4674 82.7194 42.7665C82.5638 42.4856 82.3689 42.1926 82.3161 41.8557C82.2828 41.673 82.3282 41.5144 82.5079 41.4162C82.9882 41.019 83.5123 40.7622 84.1331 40.6202C84.3657 40.5583 84.5893 40.6006 84.8158 40.7093C85.5348 41.0462 86.0544 41.6262 86.4969 42.2485C86.7038 42.5007 86.873 42.8073 87.0135 43.0626Z" fill="white"/>
<path d="M100.569 51.077C100.65 51.1631 100.727 51.29 100.847 51.3761C100.947 51.4833 101.05 51.5075 101.174 51.512C101.338 51.5181 101.446 51.4184 101.55 51.361C102.015 51.0891 102.276 50.6858 102.319 50.13C102.346 49.9457 102.313 49.7373 102.196 49.5273C102.018 49.2932 101.905 49.041 101.748 48.7872C101.421 48.1362 101.074 47.4626 100.727 46.8297C100.573 46.5352 100.542 46.2044 100.884 45.928C101.461 45.3918 102.038 44.8556 102.615 44.3194C102.785 44.1608 102.977 44.0234 103.186 43.9479C103.605 43.7575 103.998 43.7515 104.38 44.0339C104.501 44.12 104.622 44.1669 104.743 44.253C105.264 44.6849 105.832 44.9538 106.445 45.1426C106.791 45.2574 107.119 45.3525 107.455 45.1592C107.498 45.1184 107.581 45.1214 107.643 45.1033C107.81 45.0686 107.937 44.9493 107.966 44.765C108.016 44.5188 108.066 44.2726 108.096 44.0052C108.099 43.9237 108.081 43.8603 108.063 43.7983C107.943 43.6699 107.887 43.5234 107.747 43.4147C107.588 43.244 107.366 43.0914 107.187 42.9404C105.962 42.007 104.716 41.0947 103.51 40.1824C102.625 39.5314 101.782 38.8804 100.897 38.2702C100.193 37.7687 99.4457 37.3081 98.7207 36.8277C98.3159 36.6057 97.9323 36.3641 97.529 36.1027C96.6439 35.491 95.7588 34.84 94.8541 34.2072C94.3692 33.9006 93.8859 33.5939 93.3799 33.307C93.2591 33.2194 93.1186 33.1121 92.9766 33.0442C92.5099 32.8418 91.9949 32.8025 91.4934 32.949C91.1807 33.0396 90.9255 33.2375 90.8122 33.5426C90.6249 34.1135 90.6234 34.7132 90.9149 35.2388C90.9723 35.3445 90.9889 35.4487 91.0478 35.5545C91.1022 35.7418 91.1566 35.9291 91.2744 36.0982C91.7411 36.9002 92.2471 37.7038 92.735 38.4847C93.2032 39.2459 93.691 39.986 94.117 40.7458C94.5852 41.5055 95.0323 42.2441 95.5005 43.0054C95.8691 43.6171 96.3222 44.2318 96.6907 44.845C97.2753 45.8162 97.816 46.8267 98.4187 47.8191C98.8869 48.5788 99.3536 49.34 99.8415 50.1209C100.056 50.4396 100.23 50.7961 100.569 51.077ZM100.385 43.2047C100.213 43.4056 99.9985 43.6035 99.7856 43.8029C99.6783 43.9025 99.5922 43.9811 99.4865 44.04C99.2977 44.1351 99.1134 44.108 98.9533 43.9781C98.8325 43.892 98.6724 43.7621 98.5939 43.6352C97.9912 42.6006 97.3885 41.6082 96.8282 40.5766C96.4778 39.986 96.1304 39.3532 95.718 38.7807C95.5398 38.5481 95.3857 38.2521 95.1894 37.9983C95.1501 37.9137 95.0927 37.808 95.1788 37.7295C95.2634 37.6494 95.3676 37.6328 95.4884 37.7204C95.6304 37.7869 95.7301 37.8941 95.8706 38.0029C96.5744 38.5028 97.2979 39.0254 98.0018 39.5254C98.6664 39.983 99.3113 40.4195 99.9759 40.8787C100.257 41.0947 100.539 41.2699 100.801 41.4662C100.982 41.5765 101.101 41.7049 101.175 41.9133C101.249 42.1641 101.201 42.368 101.048 42.5492C100.855 42.7682 100.619 42.9872 100.405 43.2274C100.405 43.2274 100.405 43.2274 100.385 43.2047Z" fill="white"/>
<path d="M109.888 24.8418C109.904 24.8161 109.904 24.8161 109.904 24.8161C107.978 23.6592 106.037 22.5248 104.137 21.383C103.442 20.9525 102.726 20.6126 102.021 20.3121C101.871 20.2199 101.652 20.1867 101.488 20.1203C101.063 20.0281 100.477 20.4208 100.334 20.7093C100.235 20.9223 100.178 21.1277 100.145 21.3467C100.118 21.5023 100.13 21.6473 100.199 21.7575C100.299 22.0944 100.486 22.3481 100.808 22.5475C102.584 23.6123 104.371 24.718 106.132 25.8085C106.999 26.3462 107.843 26.8688 108.733 27.3174C109.02 27.4609 109.293 27.63 109.567 27.7992C109.706 27.8506 109.75 27.9472 109.737 28.0771C109.725 28.207 109.63 28.2493 109.509 28.278C109.404 28.2825 109.308 28.3263 109.219 28.3037C108.414 28.2176 107.6 28.0922 106.797 28.0046C106.137 27.9065 105.478 27.8068 104.82 27.7071C104.315 27.6346 103.811 27.5636 103.321 27.4654C102.598 27.3612 101.904 27.2056 101.179 27.1014C100.365 26.9745 99.527 26.8325 98.6797 26.6498C98.2296 26.5441 97.7417 26.4474 97.275 26.535C96.7826 26.609 96.4352 26.8386 96.2237 27.2917C96.2026 27.3808 96.1558 27.4563 96.1104 27.5304C95.9473 27.7373 95.9383 27.9729 95.9956 28.2146C96.0364 28.4804 96.1482 28.6858 96.3415 28.8746C96.8687 29.4078 97.4532 29.9062 98.0815 30.3292C98.4637 30.601 98.8352 30.8306 99.2083 31.0617C100.06 31.6236 100.914 32.1855 101.756 32.7081C102.03 32.8772 102.293 33.0056 102.54 33.1597C104.03 34.081 105.492 34.9873 106.966 35.9328C107.437 36.2258 107.917 36.5566 108.389 36.8496C109.24 37.4115 110.094 37.9734 110.962 38.5111C111.343 38.7815 111.802 38.928 112.272 38.9446C112.597 38.9748 112.853 38.8932 113.038 38.5957C113.196 38.283 113.267 37.9477 113.311 37.5988C113.365 37.2892 113.23 37.0671 113.012 36.8632C112.577 36.4569 112.121 36.1412 111.641 35.809C111.169 35.5174 110.737 35.2154 110.266 34.9239C109.389 34.3469 108.528 33.7442 107.65 33.1657C106.499 32.4196 105.309 31.6825 104.119 30.9454C104.019 30.8835 103.919 30.8216 103.845 30.7762C103.786 30.7053 103.712 30.6584 103.693 30.5784C103.599 30.4515 103.676 30.3277 103.847 30.3307C103.927 30.311 103.992 30.3171 104.057 30.3231C104.561 30.3956 105.057 30.4273 105.545 30.524C106.644 30.6902 107.751 30.8956 108.849 31.0617C109.185 31.1312 109.509 31.1599 109.858 31.2052C110.363 31.2777 110.852 31.3744 111.372 31.4212C112.355 31.5511 113.34 31.6795 114.338 31.7837C114.973 31.8683 115.624 31.9272 116.273 31.9861C116.468 32.0042 116.628 31.9665 116.77 31.8471C117.093 31.6024 117.392 31.3411 117.617 31.0345C117.903 30.6282 117.913 30.2219 117.649 29.8186C117.335 29.3836 116.944 29.0725 116.522 28.8127C115.282 28.0439 114.001 27.2857 112.746 26.5425C111.804 25.9595 110.846 25.4007 109.888 24.8418Z" fill="white"/>
<path d="M111.738 21.4848C112.382 21.6766 113.016 21.8971 113.696 22.0693C115.549 22.5919 117.403 23.116 119.256 23.6387C119.423 23.6885 119.562 23.7308 119.712 23.7444C120.044 23.7519 120.387 23.8244 120.659 23.6311C120.775 23.545 120.864 23.4499 120.982 23.3622C121.213 23.0964 121.473 22.8396 121.555 22.4681C121.635 22.0965 121.78 21.7129 121.86 21.3413C121.925 21.0256 122.032 20.6616 122.041 20.3293C122.071 19.8218 122.065 19.3325 122.03 18.8355C122.015 18.3733 121.937 17.9232 121.75 17.5335C121.534 17.1333 121.318 16.7345 121.067 16.3539C120.842 15.9839 120.574 15.6591 120.26 15.3827C119.872 15.0534 119.511 14.7332 119.121 14.404C117.745 13.2002 116.149 12.3287 114.388 11.8015C113.494 11.5342 112.599 11.2668 111.68 11.0841C110.733 10.8922 109.813 10.7095 108.86 10.637C107.999 10.563 107.153 10.6445 106.309 10.8197C106.245 10.8303 106.171 10.8696 106.079 10.8726C105.633 11.0433 105.223 11.1943 104.795 11.4028C104.331 11.6293 103.954 11.9737 103.597 12.3528C103.179 12.8377 102.892 13.3905 102.603 13.9448C102.168 14.7891 101.978 15.7362 101.738 16.6394C101.672 16.8629 101.661 17.1031 101.723 17.304C101.854 17.6785 102.039 17.9776 102.351 18.254C102.617 18.4851 102.972 18.6226 103.283 18.8053C103.706 19.0228 104.108 19.2041 104.555 19.3385C106.96 20.0559 109.335 20.7658 111.738 21.4848ZM111.652 19.0228C110.578 18.6407 109.497 18.2872 108.416 17.9338C107.641 17.6725 106.887 17.4459 106.132 17.2209C105.768 17.1121 105.442 16.9838 105.106 16.8841C104.994 16.8508 104.883 16.8176 104.807 16.7647C104.581 16.6062 104.434 16.3796 104.49 16.0911C104.566 15.8404 104.603 15.6078 104.763 15.3812C104.8 15.3616 104.816 15.3057 104.86 15.2589C105.544 14.0928 106.597 13.5234 107.952 13.472C109.003 13.4207 110.039 13.5173 111.087 13.6775C111.524 13.7469 111.962 13.9085 112.382 14.0339C113.287 14.3662 114.173 14.6607 115.043 15.0112C115.753 15.2845 116.43 15.6697 117.078 16.0458C117.54 16.3358 117.964 16.6454 118.39 16.9551C118.902 17.3825 119.204 17.8991 119.417 18.5108C119.541 18.9126 119.608 19.2992 119.639 19.704C119.653 19.8596 119.676 19.9895 119.698 20.1179C119.754 20.4381 119.661 20.6541 119.408 20.8837C119.023 21.2552 118.579 21.2144 118.132 21.08C116.519 20.568 114.879 20.0469 113.237 19.5273C112.714 19.34 112.184 19.1814 111.661 18.9941L111.652 19.0228Z" fill="white"/>
</svg>
