<svg width="42" height="42" viewBox="0 0 42 42" fill="none" xmlns="http://www.w3.org/2000/svg">
<path d="M39.7674 14.057L27.8914 12.9792L23.2538 1.55904C22.4196 -0.519681 19.5732 -0.519681 18.739 1.55904L14.1014 13.0049L2.24996 14.057C0.0906837 14.2367 -0.792657 17.0596 0.851337 18.5481L9.8565 26.709L7.15741 38.8221C6.66666 41.0291 8.94862 42.7742 10.8135 41.5937L20.9964 35.1779L31.1794 41.6194C33.0442 42.7999 35.3262 41.0548 34.8354 38.8478L32.1363 26.709L41.1415 18.5481C42.7855 17.0596 41.9267 14.2367 39.7674 14.057ZM20.9964 30.3789V6.51205L25.1923 16.88L35.9396 17.8552L27.7932 25.2462L30.2469 36.2301L20.9964 30.3789Z" fill="#9747FF"/>
</svg>
