<svg width="42" height="43" viewBox="0 0 42 43" fill="none" xmlns="http://www.w3.org/2000/svg">
<path d="M21.7992 34.6487L20.999 34.1439L20.1987 34.6487L10.0192 41.0695L10.0033 41.0795L9.98769 41.0899C9.7921 41.2202 9.65708 41.2394 9.5394 41.2291C9.33611 41.2114 9.19424 41.1491 9.06844 41.0467C8.88777 40.8995 8.74142 40.7134 8.62859 40.4648C8.57784 40.353 8.54133 40.1882 8.60459 39.9016C8.60463 39.9014 8.60467 39.9012 8.60472 39.901L11.3025 27.7675L11.492 26.9152L10.8445 26.3295L1.84319 18.1869C1.63879 17.9915 1.55949 17.8219 1.52783 17.6679C1.47993 17.4349 1.49443 17.2277 1.56681 17.0172C1.65892 16.7527 1.77676 16.5884 1.89848 16.4769C1.94539 16.4339 2.08048 16.3382 2.41881 16.2823L14.2679 15.1952L15.1803 15.1115L15.5224 14.2614L20.1216 2.83242L20.1237 2.82705C20.2196 2.58624 20.3334 2.47463 20.4508 2.40453C20.6765 2.26975 20.8527 2.23145 20.999 2.23145C21.1476 2.23145 21.323 2.27018 21.5449 2.40324C21.6621 2.47345 21.7777 2.58658 21.8757 2.83087L21.8763 2.83242L26.4755 14.2614L26.8176 15.1115L27.73 15.1952L39.5791 16.2823C39.9174 16.3382 40.0525 16.4339 40.0994 16.4769C40.2214 16.5886 40.3394 16.7533 40.4316 17.0187C40.5056 17.2317 40.5201 17.4392 40.4725 17.6705C40.4413 17.8225 40.3627 17.9904 40.1574 18.1845L31.1534 26.3295L30.5059 26.9152L30.6954 27.7675L33.393 39.9001C33.3931 39.9007 33.3932 39.9012 33.3934 39.9018C33.4567 40.1907 33.4198 40.3562 33.3693 40.4674C33.2568 40.7152 33.1114 40.8993 32.9327 41.044L32.9295 41.0467C32.8037 41.1491 32.6618 41.2114 32.4585 41.2291C32.3408 41.2394 32.2058 41.2202 32.0102 41.0899L31.9946 41.0795L31.9787 41.0695L21.7992 34.6487Z" stroke="#A259FF" stroke-width="3"/>
</svg>
