<svg width="17" height="17" viewBox="0 0 17 17" fill="none" xmlns="http://www.w3.org/2000/svg">
<path d="M8.33333 0.0322266C7.23898 0.0322266 6.15535 0.247775 5.1443 0.666564C4.13326 1.08535 3.2146 1.69918 2.44078 2.473C0.877974 4.03581 0 6.15542 0 8.36556C0 12.0489 2.39167 15.1739 5.7 16.2822C6.11667 16.3489 6.25 16.0906 6.25 15.8656V14.4572C3.94167 14.9572 3.45 13.3406 3.45 13.3406C3.06667 12.3739 2.525 12.1156 2.525 12.1156C1.76667 11.5989 2.58333 11.6156 2.58333 11.6156C3.41667 11.6739 3.85833 12.4739 3.85833 12.4739C4.58333 13.7406 5.80833 13.3656 6.28333 13.1656C6.35833 12.6239 6.575 12.2572 6.80833 12.0489C4.95833 11.8406 3.01667 11.1239 3.01667 7.94889C3.01667 7.02389 3.33333 6.28223 3.875 5.69056C3.79167 5.48223 3.5 4.61556 3.95833 3.49056C3.95833 3.49056 4.65833 3.26556 6.25 4.34056C6.90833 4.15723 7.625 4.06556 8.33333 4.06556C9.04167 4.06556 9.75833 4.15723 10.4167 4.34056C12.0083 3.26556 12.7083 3.49056 12.7083 3.49056C13.1667 4.61556 12.875 5.48223 12.7917 5.69056C13.3333 6.28223 13.65 7.02389 13.65 7.94889C13.65 11.1322 11.7 11.8322 9.84167 12.0406C10.1417 12.2989 10.4167 12.8072 10.4167 13.5822V15.8656C10.4167 16.0906 10.55 16.3572 10.975 16.2822C14.2833 15.1656 16.6667 12.0489 16.6667 8.36556C16.6667 7.27121 16.4511 6.18758 16.0323 5.17653C15.6135 4.16548 14.9997 3.24683 14.2259 2.473C13.4521 1.69918 12.5334 1.08535 11.5224 0.666564C10.5113 0.247775 9.42768 0.0322266 8.33333 0.0322266Z" fill="white"/>
</svg>
