<svg width="32" height="33" viewBox="0 0 32 33" fill="none" xmlns="http://www.w3.org/2000/svg">
<path d="M21.8362 29C21.5041 29 21.1855 28.8682 20.9507 28.6336C20.7158 28.3989 20.5838 28.0807 20.5838 27.7489V24.4961C20.6228 24.122 20.5827 23.7438 20.4662 23.3861C20.3497 23.0284 20.1594 22.699 19.9076 22.4193C19.7516 22.2504 19.6453 22.0419 19.6002 21.8165C19.5551 21.5912 19.573 21.3579 19.6519 21.142C19.7308 20.9262 19.8677 20.7363 20.0476 20.593C20.2274 20.4498 20.4433 20.3588 20.6715 20.33C23.7274 19.9672 26.5452 18.9914 26.5452 13.6994C26.5462 12.7111 26.2542 11.7447 25.7061 10.922C25.2004 10.1646 25.0157 9.23785 25.1927 8.34475C25.3055 7.76215 25.3055 7.16333 25.1927 6.58073C24.2549 6.89748 23.3719 7.35749 22.5752 7.94441C22.4245 8.05127 22.2521 8.12351 22.0702 8.15595C21.8883 8.1884 21.7015 8.18024 21.5231 8.13207C19.263 7.49409 16.8701 7.49409 14.6099 8.13207C14.4316 8.18024 14.2447 8.1884 14.0629 8.15595C13.881 8.12351 13.7085 8.05127 13.5579 7.94441C12.7563 7.35069 11.864 6.89021 10.9154 6.58073C10.7963 7.16272 10.7963 7.76276 10.9154 8.34475C11.0795 9.24909 10.8865 10.1818 10.3768 10.947C9.8311 11.7755 9.53947 12.7451 9.53772 13.7369C9.53772 18.6036 11.8922 19.9047 15.424 20.3551C15.6551 20.3837 15.8736 20.4762 16.055 20.622C16.2364 20.7679 16.3735 20.9614 16.4509 21.1808C16.5238 21.3937 16.5378 21.6222 16.4915 21.8424C16.4452 22.0626 16.3403 22.2662 16.1879 22.4319C15.9443 22.692 15.7574 22.9997 15.6388 23.3356C15.5203 23.6715 15.4727 24.0283 15.4991 24.3835V27.7489C15.4991 28.0807 15.3672 28.3989 15.1323 28.6336C14.8974 28.8682 14.5789 29 14.2467 29C13.9146 29 13.596 28.8682 13.3611 28.6336C13.1263 28.3989 12.9943 28.0807 12.9943 27.7489V27.0358C11.7637 27.1772 10.5171 27.0125 9.36562 26.5563C8.2141 26.1001 7.19335 25.3666 6.3942 24.4211C5.98342 23.9662 5.49057 23.5927 4.94142 23.3201C4.78189 23.279 4.63202 23.207 4.50036 23.1081C4.36871 23.0091 4.25785 22.8853 4.17412 22.7435C4.09039 22.6018 4.03542 22.445 4.01235 22.282C3.98929 22.1191 3.99858 21.9532 4.0397 21.7938C4.08082 21.6344 4.15295 21.4847 4.25199 21.3532C4.35103 21.2217 4.47503 21.111 4.61691 21.0273C4.75879 20.9437 4.91577 20.8888 5.0789 20.8657C5.24202 20.8427 5.40809 20.852 5.56762 20.893C6.53103 21.2436 7.39186 21.8284 8.07241 22.5945C9.32481 23.8456 10.5772 24.9465 12.9568 24.4961C12.9149 23.8244 13.013 23.1513 13.2448 22.5194C10.6649 21.8689 6.98283 20.0173 6.98283 13.7619C6.97953 12.2802 7.41529 10.8306 8.23522 9.59582C8.38752 9.36788 8.44585 9.09001 8.39804 8.82016C8.14496 7.46972 8.2885 6.07497 8.81133 4.80421C8.88237 4.63477 8.98989 4.48303 9.12625 4.35979C9.26262 4.23654 9.42448 4.1448 9.60034 4.09109C10.0261 3.96599 11.5541 3.71577 14.4471 5.59238C16.7891 5.02941 19.2313 5.02941 21.5732 5.59238C24.4663 3.71577 25.9942 3.95348 26.4075 4.09109C26.5833 4.1448 26.7452 4.23654 26.8816 4.35979C27.0179 4.48303 27.1255 4.63477 27.1965 4.80421C27.7204 6.07909 27.8639 7.47814 27.6098 8.83267C27.5842 8.95471 27.5831 9.08064 27.6068 9.20308C27.6305 9.32552 27.6783 9.44203 27.7475 9.54578C28.5699 10.7841 29.0057 12.2384 28.9999 13.7244C28.9999 20.0673 25.3429 21.9064 22.738 22.4819C22.9674 23.1532 23.0611 23.8634 23.0135 24.5712V27.7489C23.0141 28.0681 22.8925 28.3755 22.6736 28.6081C22.4548 28.8406 22.1552 28.9808 21.8362 29Z" fill="#858584"/>
</svg>
