<svg width="32" height="33" viewBox="0 0 32 33" fill="none" xmlns="http://www.w3.org/2000/svg">
<path fill-rule="evenodd" clip-rule="evenodd" d="M16 12.7305C13.7909 12.7305 12 14.5213 12 16.7305C12 18.9396 13.7909 20.7305 16 20.7305C18.2091 20.7305 20 18.9396 20 16.7305C20 14.5213 18.2091 12.7305 16 12.7305ZM10 16.7305C10 13.4168 12.6863 10.7305 16 10.7305C19.3137 10.7305 22 13.4168 22 16.7305C22 20.0442 19.3137 22.7305 16 22.7305C12.6863 22.7305 10 20.0442 10 16.7305Z" fill="#858584"/>
<path fill-rule="evenodd" clip-rule="evenodd" d="M10.5 6.23047C7.73858 6.23047 5.5 8.46904 5.5 11.2305V22.2305C5.5 24.9919 7.73858 27.2305 10.5 27.2305H21.5C24.2614 27.2305 26.5 24.9919 26.5 22.2305V11.2305C26.5 8.46904 24.2614 6.23047 21.5 6.23047H10.5ZM3.5 11.2305C3.5 7.36448 6.63401 4.23047 10.5 4.23047H21.5C25.366 4.23047 28.5 7.36448 28.5 11.2305V22.2305C28.5 26.0965 25.366 29.2305 21.5 29.2305H10.5C6.63401 29.2305 3.5 26.0965 3.5 22.2305V11.2305Z" fill="#858584"/>
<path d="M22.5 11.7305C23.3284 11.7305 24 11.0589 24 10.2305C24 9.40204 23.3284 8.73047 22.5 8.73047C21.6716 8.73047 21 9.40204 21 10.2305C21 11.0589 21.6716 11.7305 22.5 11.7305Z" fill="#858584"/>
</svg>
