<svg width="32" height="33" viewBox="0 0 32 33" fill="none" xmlns="http://www.w3.org/2000/svg">
<path fill-rule="evenodd" clip-rule="evenodd" d="M7.35366 4C6.46421 4 5.6112 4.35333 4.98226 4.98226C4.35333 5.6112 4 6.46421 4 7.35366C4 8.2431 4.35333 9.09612 4.98226 9.72505C5.6112 10.354 6.46421 10.7073 7.35366 10.7073C8.2431 10.7073 9.09612 10.354 9.72505 9.72505C10.354 9.09612 10.7073 8.2431 10.7073 7.35366C10.7073 6.46421 10.354 5.6112 9.72505 4.98226C9.09612 4.35333 8.2431 4 7.35366 4ZM5.82927 7.35366C5.82927 6.94937 5.98987 6.56163 6.27575 6.27575C6.56163 5.98987 6.94937 5.82927 7.35366 5.82927C7.75795 5.82927 8.14569 5.98987 8.43157 6.27575C8.71744 6.56163 8.87805 6.94937 8.87805 7.35366C8.87805 7.75795 8.71744 8.14569 8.43157 8.43157C8.14569 8.71744 7.75795 8.87805 7.35366 8.87805C6.94937 8.87805 6.56163 8.71744 6.27575 8.43157C5.98987 8.14569 5.82927 7.75795 5.82927 7.35366ZM4 12.2317C4 11.9891 4.09636 11.7565 4.26789 11.585C4.43942 11.4134 4.67206 11.3171 4.91463 11.3171H9.79268C10.0353 11.3171 10.2679 11.4134 10.4394 11.585C10.611 11.7565 10.7073 11.9891 10.7073 12.2317V28.0854C10.7073 28.3279 10.611 28.5606 10.4394 28.7321C10.2679 28.9036 10.0353 29 9.79268 29H4.91463C4.67206 29 4.43942 28.9036 4.26789 28.7321C4.09636 28.5606 4 28.3279 4 28.0854V12.2317ZM5.82927 13.1463V27.1707H8.87805V13.1463H5.82927ZM12.5366 12.2317C12.5366 11.9891 12.6329 11.7565 12.8045 11.585C12.976 11.4134 13.2086 11.3171 13.4512 11.3171H18.3293C18.5718 11.3171 18.8045 11.4134 18.976 11.585C19.1475 11.7565 19.2439 11.9891 19.2439 12.2317V12.761L19.7744 12.5329C20.689 12.142 21.6594 11.8972 22.65 11.8073C26.0341 11.5 29 14.1585 29 17.5732V28.0854C29 28.3279 28.9036 28.5606 28.7321 28.7321C28.5606 28.9036 28.3279 29 28.0854 29H23.2073C22.9647 29 22.7321 28.9036 22.5606 28.7321C22.389 28.5606 22.2927 28.3279 22.2927 28.0854V19.5488C22.2927 19.1445 22.1321 18.7568 21.8462 18.4709C21.5603 18.185 21.1726 18.0244 20.7683 18.0244C20.364 18.0244 19.9763 18.185 19.6904 18.4709C19.4045 18.7568 19.2439 19.1445 19.2439 19.5488V28.0854C19.2439 28.3279 19.1475 28.5606 18.976 28.7321C18.8045 28.9036 18.5718 29 18.3293 29H13.4512C13.2086 29 12.976 28.9036 12.8045 28.7321C12.6329 28.5606 12.5366 28.3279 12.5366 28.0854V12.2317ZM14.3659 13.1463V27.1707H17.4146V19.5488C17.4146 18.6593 17.768 17.8063 18.3969 17.1774C19.0258 16.5485 19.8788 16.1951 20.7683 16.1951C21.6577 16.1951 22.5108 16.5485 23.1397 17.1774C23.7686 17.8063 24.122 18.6593 24.122 19.5488V27.1707H27.1707V17.5732C27.1707 15.2512 25.1451 13.4171 22.8171 13.6293C22.0173 13.702 21.2338 13.8995 20.4951 14.2146L18.6902 14.989C18.551 15.0488 18.3991 15.0731 18.2482 15.0597C18.0973 15.0463 17.9521 14.9955 17.8256 14.9121C17.6992 14.8287 17.5954 14.7152 17.5237 14.5817C17.4519 14.4483 17.4145 14.2991 17.4146 14.1476V13.1463H14.3659Z" fill="#858584"/>
</svg>
