<svg width="24" height="25" viewBox="0 0 24 25" fill="none" xmlns="http://www.w3.org/2000/svg">
<path fill-rule="evenodd" clip-rule="evenodd" d="M3 12.3652C3 11.951 3.33579 11.6152 3.75 11.6152H20.25C20.6642 11.6152 21 11.951 21 12.3652C21 12.7794 20.6642 13.1152 20.25 13.1152H3.75C3.33579 13.1152 3 12.7794 3 12.3652Z" fill="white"/>
<path fill-rule="evenodd" clip-rule="evenodd" d="M3 6.36523C3 5.95102 3.33579 5.61523 3.75 5.61523H15C15.4142 5.61523 15.75 5.95102 15.75 6.36523C15.75 6.77945 15.4142 7.11523 15 7.11523H3.75C3.33579 7.11523 3 6.77945 3 6.36523Z" fill="white"/>
<path fill-rule="evenodd" clip-rule="evenodd" d="M3 18.3652C3 17.951 3.33579 17.6152 3.75 17.6152H15C15.4142 17.6152 15.75 17.951 15.75 18.3652C15.75 18.7794 15.4142 19.1152 15 19.1152H3.75C3.33579 19.1152 3 18.7794 3 18.3652Z" fill="white"/>
</svg>
