<svg width="42" height="42" viewBox="0 0 42 42" fill="none" xmlns="http://www.w3.org/2000/svg">
<path d="M20.999 35.1859L10.8194 41.6067C10.3697 41.9064 9.89959 42.0348 9.40901 41.992C8.91843 41.9492 8.48917 41.778 8.12124 41.4783C7.7533 41.1787 7.46713 40.8037 7.26273 40.3534C7.05832 39.9031 7.01744 39.4005 7.14008 38.8458L9.83827 26.7105L0.823869 18.5561C0.415053 18.1708 0.159951 17.7317 0.0585649 17.2385C-0.0428216 16.7454 -0.0125693 16.2643 0.149322 15.7951C0.312848 15.3243 0.558138 14.939 0.885191 14.6394C1.21224 14.3398 1.66194 14.1471 2.23428 14.0615L14.1308 12.97L18.73 1.54099C18.9344 1.02733 19.2517 0.642079 19.6817 0.385248C20.1118 0.128416 20.5509 0 20.999 0C21.4487 0 21.8877 0.128416 22.3162 0.385248C22.7446 0.642079 23.0618 1.02733 23.2679 1.54099L27.8671 12.97L39.7636 14.0615C40.336 14.1471 40.7857 14.3398 41.1127 14.6394C41.4398 14.939 41.6851 15.3243 41.8486 15.7951C42.0121 16.266 42.0432 16.748 41.9418 17.2411C41.8404 17.7342 41.5845 18.1726 41.174 18.5561L32.1596 26.7105L34.8578 38.8458C34.9805 39.4023 34.9396 39.9056 34.7352 40.356C34.5308 40.8063 34.2446 41.1804 33.8767 41.4783C33.5087 41.778 33.0795 41.9492 32.5889 41.992C32.0983 42.0348 31.6282 41.9064 31.1785 41.6067L20.999 35.1859Z" fill="#9747FF"/>
</svg>
